<svg width="454" height="354" viewBox="0 0 454 354" fill="none" xmlns="http://www.w3.org/2000/svg">
<g clip-path="url(#clip0_34_3)">
<mask id="mask0_34_3" style="mask-type:luminance" maskUnits="userSpaceOnUse" x="0" y="0" width="454" height="354">
<path d="M453.8 0H0V353.4H453.8V0Z" fill="white"/>
</mask>
<g mask="url(#mask0_34_3)">
<g opacity="0.3">
<path d="M54.6001 1C54.6001 1.6 54.2001 2 53.6001 2C53.0001 2 52.6001 1.6 52.6001 1C52.6001 0.4 53.0001 0 53.6001 0C54.2001 0 54.6001 0.4 54.6001 1Z" fill="#E0E0E0"/>
</g>
<g opacity="0.3">
<path d="M57 2C57.5523 2 58 1.55228 58 1C58 0.447715 57.5523 0 57 0C56.4477 0 56 0.447715 56 1C56 1.55228 56.4477 2 57 2Z" fill="#E0E0E0"/>
</g>
<g opacity="0.3">
<path d="M61.3999 1C61.3999 1.6 60.9999 2 60.3999 2C59.7999 2 59.3999 1.6 59.3999 1C59.3999 0.4 59.7999 0 60.3999 0C60.9999 0 61.3999 0.4 61.3999 1Z" fill="#E0E0E0"/>
</g>
<path d="M453.8 325.9C453.8 326 354 326.2 231 326.2C108 326.2 8 326.1 8 325.9C8 325.7 107.8 325.6 230.9 325.6C354 325.6 453.8 325.8 453.8 325.9Z" fill="#263238"/>
<path d="M416 16.3H275.9V130.5H416V16.3Z" fill="#D4DAE3"/>
<path d="M406.1 23.5H266V137.7H406.1V23.5Z" fill="#E0E5EC"/>
<path d="M396.1 31.5H252.2V148.7H396.1V31.5Z" fill="white"/>
<path d="M396.1 148.7C396.1 148.7 396.1 147.9 396.1 146.5C396.1 145.1 396.1 143 396.1 140.2C396.1 134.7 396.1 126.7 396.1 116.4C396.1 95.9 396 66.7 396 31.4L396.2 31.6H252.3L252.6 31.3C252.6 73.7 252.6 113.7 252.6 148.5L252.4 148.3L356.4 148.4L385.8 148.5H393.6H395.6H396.3H393.7H385.9L356.5 148.6L252.4 148.7H252.2V148.5C252.2 113.7 252.2 73.7 252.2 31.3V31H252.5H396.3H396.5V31.2C396.5 66.6 396.4 95.9 396.4 116.4C396.4 126.6 396.4 134.6 396.3 140.1C396.3 142.8 396.3 144.9 396.3 146.3C396.3 147.7 396.1 148.7 396.1 148.7Z" fill="#263238"/>
<path d="M269.8 48.4L268.3 49L269.8 49.6V50.2L267.6 49.4V48.8L269.8 48V48.4Z" fill="#1A5F7A"/>
<path d="M273.4 47.3V50.5H272.6V49.2H271.1V50.5H270.3V47.3H271.1V48.6H272.6V47.3H273.4Z" fill="#1A5F7A"/>
<path d="M274.9 47.9H273.9V47.3H276.7V47.9H275.7V50.5H274.9V47.9Z" fill="#1A5F7A"/>
<path d="M280 50.6V48.6L279 50.2H278.7L277.7 48.6V50.5H277V47.3H277.6L278.8 49.3L280 47.3H280.6V50.5L280 50.6Z" fill="#1A5F7A"/>
<path d="M281.5 47.3H282.3V49.9H284V50.5H281.6L281.5 47.3Z" fill="#1A5F7A"/>
<path d="M286.4 48.7V49.3L284.2 50.1V49.5L285.7 48.9L284.2 48.3V47.8L286.4 48.7Z" fill="#1A5F7A"/>
<path d="M268.5 137.3L266.9 137.9L268.4 138.5V139.1L266.2 138.3V137.7L268.4 136.9L268.5 137.3Z" fill="#1A5F7A"/>
<path d="M270.1 135.6H270.7L269.2 140H268.6L270.1 135.6Z" fill="#1A5F7A"/>
<path d="M273.9 136.2V139.4H273.1V138.1H271.7V139.4H271V136.2H271.8V137.5H273.3V136.2H273.9Z" fill="#1A5F7A"/>
<path d="M275.4 136.8H274.4V136.2H277.2V136.8H276.2V139.4H275.4V136.8Z" fill="#1A5F7A"/>
<path d="M280.5 139.5V137.5L279.5 139.1H279.2L278.2 137.5V139.4H277.5V136.2H278.1L279.3 138.2L280.5 136.2H281.1V139.4L280.5 139.5Z" fill="#1A5F7A"/>
<path d="M282 136.2H282.8V138.8H284.4V139.4H282V136.2Z" fill="#1A5F7A"/>
<path d="M286.9 137.5V138.1L284.7 138.9V138.3L286.2 137.7L284.7 137.1V136.5L286.9 137.5Z" fill="#1A5F7A"/>
<path d="M280 57.3L278.4 57.9L280 58.5V58.9L277.9 58.1V57.7L280 56.9V57.3Z" fill="black"/>
<path d="M283.6 56.3V59.5H283.1V58.1H281.2V59.5H280.7V56.3H281.2V57.7H283.1V56.3H283.6Z" fill="black"/>
<path d="M286.9 59.1V59.5H284.5V56.3H286.8V56.7H285V57.7H286.6V58.1H285V59.1H286.9Z" fill="black"/>
<path d="M289.7 58.7H288L287.6 59.5H287.1L288.6 56.3H289.1L290.6 59.5H290.1L289.7 58.7ZM289.5 58.4L288.8 56.8L288.1 58.4H289.5Z" fill="black"/>
<path d="M291 56.3H292.4C293.3 56.2 294.1 56.9 294.2 57.8C294.3 58.7 293.6 59.5 292.7 59.6C292.6 59.6 292.5 59.6 292.4 59.6H291V56.3ZM292.4 59.1C293.1 59.1 293.6 58.6 293.6 57.9C293.6 57.2 293.1 56.7 292.4 56.7H291.5V59.1H292.4Z" fill="black"/>
<path d="M296.8 57.7V58.1L294.7 58.9V58.5L296.3 57.9L294.7 57.3V56.9L296.8 57.7Z" fill="black"/>
<path d="M280 68.4L278.4 69L280 69.6V70L277.9 69.2V68.8L280 68V68.4Z" fill="black"/>
<path d="M281.4 67.8H280.3V67.4H283V67.8H281.9V70.7H281.4V67.8Z" fill="black"/>
<path d="M283.5 67.4H284V70.6H283.5V67.4Z" fill="black"/>
<path d="M285.6 67.8H284.5V67.4H287.2V67.8H286V70.7H285.5L285.6 67.8Z" fill="black"/>
<path d="M287.6 67.4H288.1V70.2H289.9V70.6H287.7L287.6 67.4Z" fill="black"/>
<path d="M292.8 70.3V70.7H290.4V67.5H292.7V67.9H290.9V68.9H292.5V69.3H290.9V70.3H292.8Z" fill="black"/>
<path d="M295.4 68.8V69.2L293.3 70V69.6L294.9 69L293.3 68.4V68L295.4 68.8Z" fill="black"/>
<path d="M297.4 67.4H297.9V70.2H299.7V70.6H297.5L297.4 67.4Z" fill="black"/>
<path d="M299.9 69.4C299.9 68.7 300.5 68.1 301.2 68.1C301.9 68.1 302.5 68.7 302.5 69.4C302.5 70.1 301.9 70.7 301.2 70.7C300.5 70.7 300 70.2 299.9 69.5C299.9 69.5 299.9 69.5 299.9 69.4ZM302 69.4C302.1 68.9 301.7 68.5 301.3 68.5C300.8 68.4 300.4 68.8 300.4 69.2C300.4 69.3 300.4 69.3 300.4 69.4C300.3 69.9 300.7 70.3 301.1 70.3C301.6 70.4 302 70 302 69.6C302 69.6 302 69.5 302 69.4Z" fill="black"/>
<path d="M304.4 68.2V68.6H304.3C303.9 68.6 303.5 68.9 303.5 69.3V69.4V70.6H303V68.1H303.4V68.5C303.7 68.3 304 68.1 304.4 68.2Z" fill="black"/>
<path d="M307.1 69.6H305.1C305.2 70 305.5 70.4 306 70.3C306.3 70.3 306.5 70.2 306.7 70L306.9 70.3C306.4 70.8 305.5 70.8 305 70.3C304.8 70.1 304.6 69.8 304.6 69.4C304.6 68.7 305.1 68.2 305.8 68.2C305.8 68.2 305.8 68.2 305.9 68.2C306.6 68.2 307.1 68.7 307.1 69.3V69.4C307.1 69.5 307.1 69.5 307.1 69.6ZM305.1 69.3H306.7C306.7 68.9 306.3 68.5 305.9 68.5C305.5 68.5 305.1 68.8 305.1 69.3Z" fill="black"/>
<path d="M311.8 69.2V70.6H311.3V69.2C311.3 68.7 311.1 68.5 310.7 68.5C310.3 68.5 310 68.8 310 69.2V69.3V70.6H309.5V69.2C309.5 68.7 309.3 68.5 308.9 68.5C308.5 68.5 308.2 68.8 308.2 69.2V69.3V70.6H307.8V68.1H308.2V68.5C308.4 68.2 308.7 68.1 309.1 68.1C309.4 68.1 309.8 68.2 310 68.5C310.2 68.2 310.6 68 310.9 68.1C311.4 68.1 311.9 68.4 311.9 69C311.8 69.1 311.8 69.2 311.8 69.2Z" fill="black"/>
<path d="M313.8 67.4C313.8 67.2 313.9 67.1 314.1 67.1C314.3 67.1 314.4 67.2 314.4 67.4C314.4 67.6 314.3 67.7 314.1 67.7C313.9 67.7 313.8 67.6 313.8 67.4ZM313.9 68.2H314.4V70.7H314L313.9 68.2Z" fill="black"/>
<path d="M317.7 69.4C317.7 70.1 317.2 70.6 316.6 70.7H316.5C316.2 70.7 315.8 70.6 315.6 70.3V71.6H315.1V68.2H315.5V68.6C315.7 68.3 316 68.2 316.4 68.2C317.1 68.2 317.6 68.7 317.6 69.3C317.7 69.4 317.7 69.4 317.7 69.4ZM317.3 69.4C317.3 68.9 316.9 68.6 316.5 68.6C316 68.6 315.7 69 315.7 69.4C315.7 69.8 316.1 70.2 316.5 70.2C316.9 70.3 317.3 69.9 317.3 69.4Z" fill="black"/>
<path d="M318 70.4L318.2 70C318.5 70.2 318.8 70.2 319.1 70.2C319.5 70.2 319.7 70.1 319.7 69.9C319.7 69.3 318.1 69.8 318.1 68.8C318.1 68.4 318.5 68.1 319.1 68.1C319.4 68.1 319.7 68.2 320 68.3L319.8 68.7C319.6 68.6 319.3 68.5 319.1 68.5C318.7 68.5 318.5 68.6 318.5 68.8C318.5 69.4 320.1 68.9 320.1 69.9C320.1 70.3 319.7 70.6 319 70.6C318.6 70.7 318.3 70.6 318 70.4Z" fill="black"/>
<path d="M322.9 68.2V70.7H322.5V70.3C322.3 70.6 322 70.7 321.7 70.7C321.1 70.7 320.7 70.3 320.6 69.8V69.7V68.3H321.1V69.7C321.1 70.2 321.3 70.4 321.8 70.4C322.2 70.4 322.5 70.1 322.6 69.7V69.6V68.3L322.9 68.2Z" fill="black"/>
<path d="M327.9 69.2V70.6H327.5V69.2C327.5 68.7 327.3 68.5 326.9 68.5C326.5 68.5 326.2 68.8 326.2 69.2V69.3V70.6H325.7V69.2C325.7 68.7 325.5 68.5 325.1 68.5C324.7 68.5 324.4 68.8 324.4 69.2V69.3V70.6H323.9V68.1H324.3V68.5C324.5 68.2 324.8 68.1 325.2 68.1C325.5 68.1 325.9 68.2 326.1 68.5C326.3 68.2 326.7 68 327.1 68.1C327.6 68.1 328.1 68.4 328.1 68.9C327.9 69.1 327.9 69.2 327.9 69.2Z" fill="black"/>
<path d="M331.9 68.4L330.3 69L331.9 69.6V70L329.8 69.2V68.8L331.9 68V68.4Z" fill="black"/>
<path d="M333.6 66.8H334L332.5 71.2H332.1L333.6 66.8Z" fill="black"/>
<path d="M335.1 67.8H334V67.4H336.7V67.8H335.6V70.7H335.1V67.8Z" fill="black"/>
<path d="M337.2 67.4H337.7V70.6H337.2V67.4Z" fill="black"/>
<path d="M339.3 67.8H338.2V67.4H340.9V67.8H339.8V70.7H339.3V67.8Z" fill="black"/>
<path d="M341.3 67.4H341.8V70.2H343.6V70.6H341.4L341.3 67.4Z" fill="black"/>
<path d="M346.4 70.3V70.7H344V67.5H346.3V67.9H344.5V68.9H346.1V69.3H344.5V70.3H346.4Z" fill="black"/>
<path d="M349.1 68.8V69.2L347 70V69.6L348.6 69L347 68.4V68L349.1 68.8Z" fill="black"/>
<path d="M280 79.5L278.4 80.1L280 80.7V81.1L277.9 80.3V79.9L280 79.1V79.5Z" fill="black"/>
<path d="M281.7 77.8H282.1L280.6 82.2H280.2L281.7 77.8Z" fill="black"/>
<path d="M285.2 78.5V81.7H284.7V80.3H282.9V81.7H282.4V78.5H282.9V79.9H284.8V78.5H285.2Z" fill="black"/>
<path d="M288.5 81.4V81.8H286.1V78.6H288.4V79H286.6V80H288.2V80.4H286.6V81.4H288.5Z" fill="black"/>
<path d="M291.3 81H289.6L289.2 81.8H288.7L290.2 78.6H290.7L292.2 81.8H291.7L291.3 81ZM291.2 80.6L290.5 79L289.8 80.6H291.2Z" fill="black"/>
<path d="M292.7 78.5H294.1C295 78.4 295.8 79.1 295.9 80C296 80.9 295.3 81.7 294.4 81.8C294.3 81.8 294.2 81.8 294.1 81.8H292.7V78.5ZM294 81.4C294.7 81.5 295.3 81 295.3 80.3C295.3 79.6 294.9 79 294.2 79C294.1 79 294.1 79 294 79H293.1V81.4H294Z" fill="black"/>
<path d="M298.4 80V80.4L296.3 81.2V80.9L297.9 80.3L296.3 79.7V79.3L298.4 80Z" fill="black"/>
<path d="M271.4 89.2L269.8 89.8L271.4 90.4V90.8L269.3 90V89.6L271.4 88.8V89.2Z" fill="black"/>
<path d="M274.9 90.6C274.9 91.2 274.5 91.5 273.7 91.5H272.2V88.3H273.7C274.5 88.3 274.9 88.6 274.9 89.1C274.5 89.3 274.3 89.8 274.6 90.2C274.5 90.3 274.7 90.5 274.9 90.6ZM272.6 88.6V89.6H273.6C274.1 89.6 274.3 89.4 274.3 89.1C274.3 88.8 274 88.6 273.6 88.6H272.6ZM274.4 90.6C274.4 90.2 274.1 90 273.6 90H272.5V91.1H273.6C274.2 91.1 274.5 90.9 274.4 90.6Z" fill="black"/>
<path d="M275.4 89.8C275.4 88.8 276.1 88 277.1 88C278.1 88 278.9 88.7 278.9 89.7C278.9 90.7 278.2 91.5 277.2 91.5C277.2 91.5 277.2 91.5 277.1 91.5C276.2 91.5 275.4 90.8 275.4 89.8C275.4 89.9 275.4 89.9 275.4 89.8ZM278.4 89.8C278.4 89.1 277.9 88.5 277.2 88.5C276.5 88.5 275.9 89 275.9 89.7C275.9 90.4 276.4 91 277.1 91C277.8 91.1 278.4 90.6 278.4 89.8C278.4 89.9 278.4 89.9 278.4 89.8Z" fill="black"/>
<path d="M279.6 88.2H281C281.9 88.1 282.7 88.8 282.8 89.7C282.9 90.6 282.2 91.4 281.3 91.5C281.2 91.5 281.1 91.5 281 91.5H279.6V88.2ZM280.9 91C281.6 91 282.1 90.5 282.1 89.8C282.1 89.1 281.6 88.6 280.9 88.6H280V91H280.9Z" fill="black"/>
<path d="M284.5 90.3V91.4H284V90.3L282.7 88.2H283.2L284.2 89.9L285.2 88.2H285.7L284.5 90.3Z" fill="black"/>
<path d="M288.1 89.6V90L286 90.8V90.4L287.6 89.8L286 89.2V88.9L288.1 89.6Z" fill="black"/>
<path d="M271.4 100.3L269.8 100.9L271.4 101.5V101.9L269.3 101.1V100.7L271.4 99.9V100.3Z" fill="black"/>
<path d="M274.9 99.3V102.5H274.4V101.1H272.5V102.5H272V99.3H272.5V100.7H274.4V99.3H274.9Z" fill="black"/>
<path d="M276.7 99.3V102.5H276.2V99.7H275.5V99.3H276.7Z" fill="black"/>
<path d="M279.5 100.7V101.1L277.4 101.9V101.6L279 101L277.4 100.4V100L279.5 100.7Z" fill="black"/>
<path d="M281.6 99.3H281.9V102.2H283.7V102.5H281.5V99.3H281.6Z" fill="black"/>
<path d="M284 101.3C284 100.6 284.6 100.1 285.2 100.1C285.8 100.1 286.4 100.7 286.4 101.3C286.4 102 285.8 102.5 285.2 102.5C284.6 102.6 284 102.1 284 101.3C284 101.4 284 101.4 284 101.3ZM286.1 101.3C286.1 100.8 285.7 100.4 285.2 100.4C284.7 100.4 284.3 100.8 284.3 101.3C284.3 101.8 284.7 102.2 285.2 102.2C285.7 102.3 286.1 101.9 286.1 101.3C286.1 101.4 286.1 101.4 286.1 101.3Z" fill="black"/>
<path d="M288.4 100.1V100.4H288.3C287.9 100.4 287.5 100.7 287.5 101.2V101.3V102.5H287.2V100.1H287.5V100.6C287.6 100.3 288 100.1 288.4 100.1Z" fill="black"/>
<path d="M291.1 101.4H289.1C289.1 101.9 289.6 102.3 290.1 102.3C290.4 102.3 290.7 102.2 290.9 102L291.1 102.2C290.9 102.5 290.5 102.6 290.2 102.6C289.5 102.6 289 102.1 288.9 101.5V101.4C288.9 100.7 289.4 100.2 290 100.2C290 100.2 290 100.2 290.1 100.2C290.7 100.2 291.3 100.7 291.3 101.3V101.4H291.1ZM289.1 101.2H290.8C290.7 100.7 290.3 100.4 289.8 100.4C289.4 100.5 289.1 100.8 289.1 101.2Z" fill="black"/>
<path d="M295.8 101.1V102.5H295.5V101.1C295.5 100.6 295.2 100.3 294.8 100.3C294.4 100.3 294 100.6 294 101V101.1V102.4H293.7V101C293.7 100.5 293.4 100.2 293 100.2C292.6 100.2 292.2 100.5 292.2 101V101.1V102.4H291.9V100H292.2V100.4C292.4 100.1 292.7 99.9 293.1 99.9C293.5 99.9 293.8 100.1 294 100.4C294.2 100.1 294.6 99.8 295 99.9C295.5 99.9 295.9 100.3 296 100.8C295.8 101 295.8 101.1 295.8 101.1Z" fill="black"/>
<path d="M297.8 99.3C297.8 99.2 297.9 99.1 298 99.1C298.1 99.1 298.2 99.2 298.2 99.3C298.2 99.4 298.1 99.5 298 99.5C297.9 99.5 297.8 99.5 297.8 99.3ZM297.9 100.1H298.2V102.5H297.9V100.1Z" fill="black"/>
<path d="M301.6 101.3C301.6 102 301.1 102.5 300.5 102.5H300.4C300 102.5 299.7 102.3 299.5 102V103.4H299.2V100.1H299.5V100.6C299.7 100.3 300.1 100.1 300.4 100.1C301 100.1 301.6 100.6 301.6 101.3ZM301.3 101.3C301.3 100.8 300.9 100.4 300.4 100.4C299.9 100.4 299.5 100.8 299.5 101.3C299.5 101.8 299.9 102.2 300.4 102.2C300.9 102.2 301.3 101.8 301.3 101.3Z" fill="black"/>
<path d="M301.9 102.3L302 102C302.3 102.2 302.6 102.3 302.9 102.3C303.4 102.3 303.5 102.1 303.5 101.9C303.5 101.3 301.9 101.8 301.9 100.8C301.9 100.4 302.3 100.1 302.9 100.1C303.2 100.1 303.5 100.2 303.8 100.3L303.7 100.6C303.5 100.5 303.2 100.4 303 100.4C302.6 100.4 302.4 100.6 302.4 100.8C302.4 101.5 304 101 304 101.9C304 102.3 303.6 102.6 303 102.6C302.6 102.6 302.2 102.5 301.9 102.3Z" fill="black"/>
<path d="M306.7 100.1V102.5H306.4V102.1C306.2 102.4 305.9 102.6 305.5 102.6C305 102.6 304.5 102.2 304.5 101.7C304.5 101.6 304.5 101.6 304.5 101.5V100.1H304.8V101.5C304.8 102 305.1 102.3 305.5 102.3C305.9 102.3 306.3 102 306.3 101.6V101.5V100.2H306.7V100.1Z" fill="black"/>
<path d="M311.7 101.1V102.5H311.4V101.1C311.4 100.6 311.1 100.3 310.7 100.3C310.3 100.3 309.9 100.6 309.9 101V101.1V102.4H309.6V101C309.6 100.5 309.3 100.2 308.9 100.2C308.5 100.2 308.1 100.5 308.1 101V101.1V102.4H307.8V100H308.1V100.4C308.3 100.1 308.6 99.9 309 99.9C309.4 99.9 309.7 100.1 309.9 100.4C310.1 100 310.5 99.8 310.9 99.9C311.4 99.9 311.8 100.3 311.8 100.8C311.7 101 311.7 101.1 311.7 101.1Z" fill="black"/>
<path d="M316 99.1V102.5H315.7V102C315.5 102.3 315.1 102.5 314.8 102.5C314.1 102.4 313.6 101.8 313.7 101.1C313.8 100.5 314.2 100 314.8 100C315.2 100 315.5 100.2 315.7 100.5V99H316V99.1ZM315.7 101.3C315.7 100.8 315.3 100.4 314.8 100.4C314.3 100.4 313.9 100.8 313.9 101.3C313.9 101.8 314.3 102.2 314.8 102.2C315.3 102.3 315.7 101.9 315.7 101.3C315.7 101.4 315.7 101.4 315.7 101.3Z" fill="black"/>
<path d="M316.7 101.3C316.7 100.6 317.3 100.1 317.9 100.1C318.5 100.1 319.1 100.7 319.1 101.3C319.1 101.9 318.5 102.5 317.9 102.5C317.3 102.6 316.7 102.1 316.7 101.3C316.7 101.4 316.7 101.4 316.7 101.3ZM318.8 101.3C318.8 100.8 318.4 100.4 317.9 100.4C317.4 100.4 317 100.8 317 101.3C317 101.8 317.4 102.2 317.9 102.2C318.4 102.3 318.8 101.9 318.8 101.3C318.8 101.4 318.8 101.4 318.8 101.3Z" fill="black"/>
<path d="M319.8 99.1H320.1V102.5H319.8V99.1Z" fill="black"/>
<path d="M320.8 101.3C320.8 100.6 321.4 100.1 322 100.1C322.6 100.1 323.2 100.7 323.2 101.3C323.2 102 322.6 102.5 322 102.5C321.4 102.6 320.9 102.1 320.8 101.3C320.8 101.4 320.8 101.4 320.8 101.3ZM323 101.3C323 100.8 322.6 100.4 322.1 100.4C321.6 100.4 321.2 100.8 321.2 101.3C321.2 101.8 321.6 102.2 322.1 102.2C322.6 102.3 323 101.9 323 101.3C323 101.4 323 101.4 323 101.3Z" fill="black"/>
<path d="M325.2 100.1V100.4H325.1C324.7 100.4 324.3 100.7 324.3 101.2V101.3V102.5H324V100.1H324.3V100.6C324.5 100.3 324.8 100.1 325.2 100.1Z" fill="black"/>
<path d="M326.7 102.3L326.8 102C327.1 102.2 327.4 102.3 327.7 102.3C328.2 102.3 328.3 102.1 328.3 101.9C328.3 101.3 326.7 101.8 326.7 100.8C326.7 100.4 327 100.1 327.7 100.1C328 100.1 328.3 100.2 328.6 100.3L328.5 100.6C328.3 100.5 328 100.4 327.8 100.4C327.4 100.4 327.2 100.6 327.2 100.8C327.2 101.5 328.8 101 328.8 101.9C328.8 102.3 328.4 102.6 327.8 102.6C327.4 102.6 327 102.5 326.7 102.3Z" fill="black"/>
<path d="M329.2 99.3C329.2 99.2 329.3 99.1 329.4 99.1C329.5 99.1 329.6 99.2 329.6 99.3C329.6 99.4 329.5 99.5 329.4 99.5C329.3 99.5 329.2 99.5 329.2 99.3ZM329.3 100.1H329.6V102.5H329.3V100.1Z" fill="black"/>
<path d="M331.8 102.4C331.7 102.5 331.5 102.6 331.3 102.6C330.9 102.6 330.6 102.4 330.6 102V101.9V100.4H330.2V100.1H330.6V99.6H330.9V100.1H331.6V100.4H330.9V101.9C330.9 102.1 331 102.3 331.2 102.3H331.3C331.4 102.3 331.6 102.3 331.7 102.2L331.8 102.4Z" fill="black"/>
<path d="M335.5 101V102.5H335.2V102.1C335 102.4 334.7 102.5 334.4 102.5C333.9 102.5 333.5 102.2 333.5 101.8C333.5 101.4 333.7 101.1 334.4 101.1H335.2V101C335.2 100.7 335 100.4 334.7 100.3H334.6C334.3 100.3 334 100.4 333.8 100.6L333.7 100.4C334 100.2 334.3 100.1 334.7 100.1C335.2 100 335.6 100.4 335.7 100.8C335.5 100.9 335.5 101 335.5 101ZM335.2 101.8V101.4H334.4C333.9 101.4 333.8 101.6 333.8 101.8C333.8 102 334 102.3 334.4 102.3C334.7 102.3 335 102.2 335.2 101.8Z" fill="black"/>
<path d="M340.4 101.1V102.5H340.1V101.1C340.1 100.6 339.8 100.3 339.4 100.3C339 100.3 338.6 100.6 338.6 101.1V101.2V102.5H338.3V101.1C338.3 100.6 338 100.3 337.6 100.3C337.2 100.3 336.8 100.6 336.8 101.1V101.2V102.5H336.5V100.1H336.8V100.5C337 100.2 337.3 100 337.7 100C338.1 100 338.4 100.2 338.6 100.5C338.8 100.1 339.2 99.9 339.6 100C340.1 100 340.5 100.4 340.6 100.9C340.4 101 340.4 101.1 340.4 101.1Z" fill="black"/>
<path d="M343.4 101.4H341.4C341.4 101.9 341.9 102.3 342.4 102.3C342.7 102.3 343 102.2 343.2 102L343.4 102.2C343.2 102.5 342.8 102.6 342.5 102.6C341.8 102.6 341.3 102.1 341.2 101.5V101.4C341.2 100.7 341.7 100.2 342.4 100.2C343.1 100.2 343.6 100.7 343.6 101.4C343.5 101.3 343.4 101.4 343.4 101.4ZM341.4 101.2H343.1C343 100.7 342.6 100.4 342.1 100.4C341.8 100.5 341.5 100.8 341.4 101.2Z" fill="black"/>
<path d="M345.4 102.4C345.3 102.5 345.1 102.6 344.9 102.6C344.5 102.6 344.2 102.4 344.2 102V101.9V100.4H343.8V100.1H344.2V99.6H344.5V100.1H345.2V100.4H344.5V101.9C344.5 102.1 344.6 102.3 344.8 102.3H344.9C345 102.3 345.2 102.3 345.3 102.2L345.4 102.4Z" fill="black"/>
<path d="M346.3 102.3C346.3 102.4 346.3 102.5 346.2 102.6L346 103.2H345.8L346 102.5C345.9 102.5 345.8 102.4 345.8 102.3C345.8 102.2 345.9 102.1 346 102.1C346.2 102.1 346.3 102.2 346.3 102.3Z" fill="black"/>
<path d="M348 101.3C348 100.6 348.5 100.1 349.2 100.1H349.3C349.7 100.1 350.1 100.3 350.3 100.6L350.1 100.8C349.9 100.6 349.7 100.4 349.4 100.4C348.9 100.6 348.6 101.1 348.8 101.7C348.9 102 349.1 102.2 349.4 102.3C349.7 102.3 349.9 102.2 350.1 101.9L350.3 102.1C350.1 102.4 349.7 102.6 349.3 102.6C348.6 102.6 348 102.1 348 101.3C348 101.4 348 101.4 348 101.3Z" fill="black"/>
<path d="M350.6 101.3C350.6 100.6 351.2 100.1 351.8 100.1C352.4 100.1 353 100.7 353 101.3C353 102 352.4 102.5 351.8 102.5C351.1 102.6 350.6 102.1 350.6 101.3C350.6 101.4 350.6 101.4 350.6 101.3ZM352.7 101.3C352.8 100.8 352.4 100.4 351.9 100.3H351.8C351.3 100.5 351 101 351.2 101.6C351.3 101.9 351.5 102.1 351.8 102.2C352.3 102.2 352.7 101.8 352.7 101.3Z" fill="black"/>
<path d="M356 101.1V102.5H355.7V101.1C355.8 100.7 355.5 100.4 355.1 100.3C355 100.3 355 100.3 354.9 100.3C354.5 100.3 354.1 100.6 354 101V101.1V102.4H353.7V100H354V100.4C354.2 100.1 354.6 99.9 354.9 99.9C355.4 99.9 355.9 100.3 355.9 100.8C356 101 356 101.1 356 101.1Z" fill="black"/>
<path d="M356.5 102.3L356.6 102C356.9 102.2 357.2 102.3 357.5 102.3C358 102.3 358.1 102.1 358.1 101.9C358.1 101.3 356.5 101.8 356.5 100.8C356.5 100.4 356.8 100.1 357.5 100.1C357.8 100.1 358.1 100.2 358.4 100.3L358.3 100.6C358.1 100.5 357.8 100.4 357.6 100.4C357.2 100.4 357 100.6 357 100.8C357 101.5 358.6 101 358.6 101.9C358.6 102.3 358.2 102.6 357.6 102.6C357.2 102.6 356.8 102.5 356.5 102.3Z" fill="black"/>
<path d="M361.2 101.4H359.2C359.2 101.9 359.7 102.3 360.2 102.3C360.5 102.3 360.8 102.2 361 102L361.2 102.2C361 102.5 360.6 102.6 360.3 102.6C359.6 102.6 359.1 102.1 359 101.5V101.4C359 100.7 359.5 100.2 360.1 100.2C360.1 100.2 360.1 100.2 360.2 100.2C360.8 100.2 361.4 100.7 361.4 101.3V101.4H361.2ZM359.2 101.2H360.9C360.8 100.7 360.4 100.4 359.9 100.4C359.5 100.5 359.2 100.8 359.2 101.2Z" fill="black"/>
<path d="M361.7 101.3C361.7 100.6 362.2 100.1 362.9 100.1H363C363.4 100.1 363.8 100.3 364 100.6L363.8 100.8C363.6 100.6 363.4 100.4 363.1 100.4C362.6 100.6 362.3 101.1 362.5 101.7C362.6 102 362.8 102.2 363.1 102.3C363.4 102.3 363.6 102.2 363.8 101.9L364 102.1C363.8 102.4 363.4 102.6 363 102.6C362.3 102.6 361.7 102.1 361.7 101.3C361.7 101.4 361.7 101.4 361.7 101.3Z" fill="black"/>
<path d="M365.8 102.4C365.7 102.5 365.5 102.6 365.3 102.6C364.9 102.6 364.6 102.4 364.6 102V101.9V100.4H364.2V100.1H364.6V99.6H364.9V100.1H365.6V100.4H364.9V101.9C364.9 102.1 365 102.3 365.2 102.3H365.3C365.4 102.3 365.6 102.3 365.7 102.2L365.8 102.4Z" fill="black"/>
<path d="M368.5 101.4H366.5C366.5 101.9 367 102.3 367.5 102.3C367.8 102.3 368.1 102.2 368.3 102L368.5 102.2C368.3 102.5 367.9 102.6 367.6 102.6C366.9 102.6 366.4 102.1 366.3 101.5V101.4C366.3 100.7 366.8 100.2 367.5 100.2C368.2 100.2 368.7 100.7 368.7 101.4C368.6 101.3 368.5 101.4 368.5 101.4ZM366.5 101.2H368.2C368.1 100.7 367.7 100.4 367.2 100.4C366.8 100.5 366.5 100.8 366.5 101.2Z" fill="black"/>
<path d="M370.4 102.4C370.3 102.5 370.1 102.6 369.9 102.6C369.5 102.6 369.2 102.4 369.2 102V101.9V100.4H368.8V100.1H369.2V99.6H369.5V100.1H370.2V100.4H369.5V101.9C369.5 102.1 369.6 102.3 369.8 102.3H369.9C370 102.3 370.2 102.3 370.3 102.2L370.4 102.4Z" fill="black"/>
<path d="M373.2 100.1V102.5H372.9V102.1C372.7 102.4 372.4 102.6 372 102.6C371.4 102.6 371 102.2 371 101.6C371 101.6 371 101.6 371 101.5V100.1H371.3V101.5C371.3 102 371.6 102.3 372 102.3C372.4 102.3 372.8 102 372.8 101.6V101.5V100.2L373.2 100.1Z" fill="black"/>
<path d="M376.3 101.4H374.3C374.3 101.9 374.7 102.3 375.2 102.3C375.2 102.3 375.2 102.3 375.3 102.3C375.6 102.3 375.9 102.2 376 102L376.2 102.2C375.7 102.7 374.9 102.7 374.4 102.2C374.2 102 374 101.6 374 101.3C374 100.7 374.5 100.1 375.1 100.1H375.2C375.8 100.1 376.4 100.6 376.4 101.2V101.3L376.3 101.4ZM374.3 101.2H376C375.9 100.7 375.5 100.4 375 100.4C374.6 100.5 374.3 100.8 374.3 101.2Z" fill="black"/>
<path d="M378.2 100.1V100.4H378.1C377.7 100.4 377.3 100.7 377.3 101.2V101.3V102.5H376.9V100.1H377.2V100.6C377.4 100.2 377.8 100 378.2 100.1Z" fill="black"/>
<path d="M271.3 106.6V108.1H271V107.7C270.8 108 270.5 108.1 270.2 108.1C269.7 108.1 269.3 107.8 269.3 107.4C269.3 107 269.5 106.7 270.2 106.7H270.9V106.6C270.9 106.2 270.7 106 270.2 106C269.9 106 269.6 106.1 269.4 106.3L269.3 106.1C269.6 105.9 269.9 105.8 270.3 105.8C270.8 105.7 271.2 106 271.3 106.5C271.3 106.4 271.3 106.5 271.3 106.6ZM270.9 107.4V107H270.1C269.6 107 269.5 107.2 269.5 107.4C269.5 107.6 269.7 107.9 270.1 107.9C270.5 107.9 270.8 107.7 270.9 107.4Z" fill="black"/>
<path d="M274.4 104.7V108.1H274.1V107.6C273.9 107.9 273.5 108.1 273.1 108.1C272.4 108 271.9 107.4 272 106.7C272.1 106.1 272.5 105.6 273.1 105.6C273.5 105.6 273.8 105.8 274 106.1V104.6H274.4V104.7ZM274.1 106.9C274.1 106.4 273.7 106 273.2 106C272.7 106 272.3 106.4 272.3 106.9C272.3 107.4 272.7 107.8 273.2 107.8C273.7 107.9 274.1 107.5 274.1 106.9Z" fill="black"/>
<path d="M275.2 104.9C275.2 104.8 275.3 104.7 275.4 104.7C275.5 104.7 275.6 104.8 275.6 104.9C275.6 105 275.4 105.1 275.3 105.1C275.3 105.1 275.3 105 275.2 104.9ZM275.3 105.7H275.6V108.1H275.3V105.7Z" fill="black"/>
<path d="M279 106.9C279 107.6 278.5 108.1 277.9 108.1H277.8C277.4 108.1 277.1 107.9 276.9 107.6V109H276.6V105.7H276.9V106.2C277.1 105.9 277.5 105.7 277.8 105.7C278.5 105.6 279 106.2 279 106.9ZM278.7 106.9C278.7 106.4 278.3 106 277.8 106C277.3 106 276.9 106.4 276.9 106.9C276.9 107.4 277.3 107.8 277.8 107.8C278.3 107.8 278.7 107.4 278.7 106.9Z" fill="black"/>
<path d="M279.6 104.9C279.6 104.8 279.7 104.7 279.8 104.7C279.9 104.7 280 104.8 280 104.9C280 105 279.9 105.1 279.8 105.1C279.7 105.1 279.6 105 279.6 104.9ZM279.7 105.7H280V108.1H279.7V105.7Z" fill="black"/>
<path d="M280.6 107.8L280.7 107.5C281 107.7 281.3 107.8 281.6 107.8C282.1 107.8 282.2 107.6 282.2 107.4C282.2 106.8 280.6 107.3 280.6 106.3C280.6 105.9 280.9 105.6 281.6 105.6C281.9 105.6 282.2 105.7 282.5 105.8L282.4 106.1C282.2 106 281.9 105.9 281.7 105.9C281.3 105.9 281.1 106.1 281.1 106.3C281.1 107 282.7 106.5 282.7 107.4C282.7 107.8 282.3 108.1 281.7 108.1C281.3 108.2 280.9 108.1 280.6 107.8Z" fill="black"/>
<path d="M283 106.9C283 106.2 283.5 105.7 284.2 105.7H284.3C284.7 105.7 285.1 105.9 285.3 106.2L285.1 106.4C284.9 106.2 284.7 106 284.4 106C283.9 106.2 283.6 106.7 283.8 107.3C283.9 107.6 284.1 107.8 284.4 107.9C284.7 107.9 284.9 107.8 285.1 107.5L285.3 107.7C285.1 108 284.7 108.2 284.3 108.2C283.6 108.2 283 107.6 283 106.9Z" fill="black"/>
<path d="M285.7 104.9C285.7 104.8 285.8 104.7 285.9 104.7C286 104.7 286.1 104.8 286.1 104.9C286.1 105 286 105.1 285.9 105.1C285.8 105.1 285.7 105 285.7 104.9ZM285.8 105.7H286.1V108.1H285.8V105.7Z" fill="black"/>
<path d="M289.3 106.7V108.1H289V106.7C289.1 106.3 288.8 106 288.4 105.9C288.3 105.9 288.3 105.9 288.2 105.9C287.8 105.9 287.4 106.2 287.3 106.6V106.7V108H287V105.6H287.3V106C287.5 105.7 287.9 105.5 288.2 105.5C288.7 105.5 289.2 105.9 289.2 106.4C289.3 106.6 289.3 106.6 289.3 106.7Z" fill="black"/>
<path d="M292.5 105.7V107.9C292.6 108.5 292.2 109 291.6 109.1C291.5 109.1 291.4 109.1 291.3 109.1C290.9 109.1 290.5 109 290.2 108.7L290.4 108.5C290.7 108.7 291 108.9 291.4 108.8C292 108.8 292.3 108.5 292.3 107.9V107.6C292.1 107.9 291.7 108.1 291.3 108.1C290.6 108.2 290.1 107.7 290 107C289.9 106.3 290.4 105.8 291.1 105.7C291.2 105.7 291.2 105.7 291.3 105.7C291.7 105.7 292.1 105.9 292.3 106.2V105.7H292.5ZM292.2 106.8C292.2 106.3 291.8 105.9 291.3 105.8C290.8 105.7 290.4 106.2 290.3 106.7C290.2 107.2 290.7 107.6 291.2 107.7C291.7 107.8 292.1 107.4 292.2 106.8C292.2 106.9 292.2 106.9 292.2 106.8Z" fill="black"/>
<path d="M296.7 107H294.7C294.7 107.5 295.1 107.9 295.6 107.8C295.6 107.8 295.6 107.8 295.7 107.8C296 107.8 296.3 107.7 296.4 107.5L296.6 107.7C296.1 108.2 295.3 108.2 294.8 107.7C294.6 107.5 294.4 107.1 294.4 106.8C294.4 106.2 294.9 105.6 295.5 105.6H295.6C296.2 105.6 296.8 106.1 296.8 106.7V106.8L296.7 107ZM294.7 106.8H296.4C296.3 106.3 295.9 106 295.4 106C295.1 106 294.8 106.3 294.7 106.8Z" fill="black"/>
<path d="M297.4 104.7H297.7V108.1H297.4V104.7Z" fill="black"/>
<path d="M298.6 104.9C298.6 104.8 298.7 104.7 298.8 104.7C298.9 104.7 299 104.8 299 104.9C299 105 298.8 105.1 298.7 105.1C298.7 105.1 298.6 105 298.6 104.9ZM298.7 105.7H299V108.1H298.7V105.7Z" fill="black"/>
<path d="M301.2 108C301.1 108.1 300.9 108.2 300.7 108.2C300.3 108.2 300 108 300 107.6V107.5V106H299.6V105.7H300V105.2H300.3V105.7H301V106H300.3V107.5C300.3 107.7 300.4 107.9 300.6 107.9H300.7C300.8 107.9 301 107.9 301.1 107.8L301.2 108Z" fill="black"/>
<path d="M302.1 107.8C302.1 107.9 302.1 108 302 108.1L301.8 108.7H301.6L301.8 108C301.7 108 301.6 107.9 301.6 107.8C301.6 107.7 301.7 107.6 301.8 107.6C302 107.6 302.1 107.7 302.1 107.8Z" fill="black"/>
<path d="M303.7 107.8L303.8 107.5C304.1 107.7 304.4 107.8 304.7 107.8C305.2 107.8 305.3 107.6 305.3 107.4C305.3 106.8 303.7 107.3 303.7 106.3C303.7 105.9 304 105.6 304.7 105.6C305 105.6 305.3 105.7 305.6 105.8L305.5 106.1C305.3 106 305 105.9 304.8 105.9C304.4 105.9 304.2 106.1 304.2 106.3C304.2 107 305.8 106.5 305.8 107.4C305.8 107.8 305.4 108.1 304.8 108.1C304.4 108.2 304 108.1 303.7 107.8Z" fill="black"/>
<path d="M308.4 107H306.4C306.4 107.5 306.9 107.9 307.4 107.8C307.7 107.8 308 107.7 308.2 107.5L308.4 107.7C307.9 108.2 307.1 108.2 306.6 107.7C306.4 107.5 306.2 107.1 306.2 106.8C306.2 106.2 306.7 105.6 307.3 105.6H307.4C308 105.6 308.6 106.1 308.6 106.7V106.8L308.4 107ZM306.4 106.8H308.1C308 106.3 307.6 106 307.1 106C306.8 106 306.5 106.3 306.4 106.8Z" fill="black"/>
<path d="M311.3 104.7V108.1H311V107.6C310.8 107.9 310.4 108.1 310.1 108.1C309.4 108 308.9 107.4 309 106.7C309.1 106.1 309.5 105.6 310.1 105.6C310.5 105.6 310.8 105.8 311 106.1V104.6H311.3V104.7ZM311 106.9C311 106.4 310.6 106 310.1 106C309.6 106 309.2 106.4 309.2 106.9C309.2 107.4 309.6 107.8 310.1 107.8C310.6 107.9 311 107.5 311 106.9Z" fill="black"/>
<path d="M315.7 104.7V108.1H315.4V107.6C315.2 107.9 314.8 108.1 314.5 108.1C313.8 108 313.3 107.4 313.4 106.7C313.5 106.1 313.9 105.6 314.5 105.6C314.9 105.6 315.2 105.8 315.4 106.1V104.6H315.7V104.7ZM315.3 106.9C315.3 106.4 314.9 106 314.4 106C313.9 106 313.5 106.4 313.5 106.9C313.5 107.4 313.9 107.8 314.4 107.8C314.9 107.8 315.3 107.5 315.3 106.9C315.4 106.9 315.4 106.9 315.3 106.9Z" fill="black"/>
<path d="M316.5 104.9C316.5 104.8 316.6 104.7 316.7 104.7C316.8 104.7 316.9 104.8 316.9 104.9C316.9 105 316.8 105.1 316.7 105.1C316.6 105.1 316.5 105 316.5 104.9ZM316.6 105.7H316.9V108.1H316.6V105.7Z" fill="black"/>
<path d="M319.7 106.6V108.1H319.4V107.7C319.2 108 318.9 108.1 318.6 108.1C318.1 108.1 317.7 107.8 317.7 107.4C317.7 107 317.9 106.7 318.6 106.7H319.4V106.6C319.4 106.3 319.2 106 318.9 105.9H318.8C318.5 105.9 318.2 106 318 106.2L317.9 106C318.2 105.8 318.5 105.7 318.9 105.7C319.4 105.6 319.8 106 319.9 106.4C319.7 106.5 319.7 106.5 319.7 106.6ZM319.3 107.4V107H318.5C318 107 317.9 107.2 317.9 107.4C317.9 107.6 318.1 107.9 318.5 107.9C318.9 107.9 319.2 107.7 319.3 107.4Z" fill="black"/>
<path d="M324.6 106.7V108.1H324.3V106.7C324.3 106.2 324 105.9 323.6 105.9C323.2 105.9 322.8 106.2 322.8 106.7V106.8V108.1H322.5V106.7C322.5 106.2 322.2 105.9 321.8 105.9C321.4 105.9 321 106.2 321 106.7V106.8V108.1H320.7V105.7H321V106.1C321.2 105.8 321.5 105.6 321.9 105.6C322.3 105.6 322.6 105.8 322.8 106.1C323 105.7 323.4 105.5 323.8 105.6C324.3 105.6 324.7 106 324.7 106.5C324.6 106.6 324.6 106.7 324.6 106.7Z" fill="black"/>
<path d="M327.4 105.8L325.8 106.4L327.4 107V107.4L325.3 106.6V106.2L327.4 105.4V105.8Z" fill="black"/>
<path d="M329.1 104.2H329.5L328 108.6H327.6L329.1 104.2Z" fill="black"/>
<path d="M332.6 104.8V108H332.1V106.6H330.2V108H329.7V104.8H330.2V106.2H332.1V104.8H332.6Z" fill="black"/>
<path d="M334.3 104.8V108H333.9V105.2H333.2V104.8H334.3Z" fill="black"/>
<path d="M337.2 106.3V106.7L335.1 107.5V107.1L336.8 106.5L335.1 105.9V105.5L337.2 106.3Z" fill="black"/>
<path d="M271.4 117L269.8 117.6L271.4 118.2V118.6L269.3 117.8V117.4L271.4 116.6V117Z" fill="black"/>
<path d="M274.8 117.1C274.8 117.8 274.3 118.2 273.4 118.2H272.6V119.2H272.1V116H273.4C274.3 116 274.8 116.4 274.8 117.1ZM274.3 117.1C274.3 116.6 274 116.4 273.4 116.4H272.6V117.8H273.4C274 117.8 274.3 117.6 274.3 117.1Z" fill="black"/>
<path d="M277.4 117.4V117.8L275.3 118.6V118.2L276.9 117.6L275.3 117V116.6L277.4 117.4Z" fill="black"/>
<path d="M281.3 117L279.7 117.6L281.3 118.2V118.6L279.2 117.8V117.4L281.3 116.6V117Z" fill="black"/>
<path d="M282.1 116H282.6V119.2H282.1V116Z" fill="black"/>
<path d="M286.6 119.2V116.8L285.4 118.8H285.2L284 116.8V119.2H283.6V116H284L285.4 118.3L286.7 116H287.1V119.2H286.6Z" fill="black"/>
<path d="M290.2 117.6H290.7V118.8C290.3 119.1 289.9 119.2 289.5 119.2C288.6 119.2 287.9 118.4 287.9 117.5C287.9 116.6 288.7 115.9 289.6 115.9C290 115.9 290.4 116.1 290.7 116.4L290.4 116.7C290.2 116.4 289.8 116.3 289.5 116.3C288.8 116.3 288.3 116.9 288.3 117.5C288.3 118.1 288.9 118.7 289.5 118.7C289.8 118.7 290 118.6 290.3 118.5L290.2 117.6Z" fill="black"/>
<path d="M292.5 118.8L292.7 118.4C293 118.6 293.4 118.8 293.8 118.8C294.4 118.8 294.6 118.6 294.6 118.3C294.6 117.5 292.6 118 292.6 116.8C292.6 116.3 293 115.9 293.8 115.9C294.2 115.9 294.5 116 294.8 116.2L294.6 116.6C294.3 116.4 294 116.3 293.7 116.3C293.2 116.3 292.9 116.5 292.9 116.8C292.9 117.6 294.9 117.1 294.9 118.3C294.9 118.8 294.5 119.2 293.6 119.2C293.3 119.3 292.9 119.1 292.5 118.8Z" fill="black"/>
<path d="M297.9 119.2L297.2 118.2H296.2V119.2H295.7V116H297C297.9 116 298.4 116.4 298.4 117.1C298.4 117.6 298.1 118 297.7 118.1L298.5 119.2H297.9ZM297.9 117.1C297.9 116.6 297.6 116.4 297 116.4H296.2V117.8H297C297.5 117.8 297.9 117.6 297.9 117.1Z" fill="black"/>
<path d="M298.8 117.6C298.8 116.7 299.5 116 300.4 115.9H300.5C301 115.9 301.4 116.1 301.7 116.4L301.4 116.7C301.2 116.4 300.8 116.3 300.5 116.3C299.8 116.3 299.3 116.9 299.3 117.5C299.3 118.1 299.9 118.7 300.5 118.7C300.8 118.7 301.2 118.6 301.4 118.3L301.7 118.6C301.4 118.9 300.9 119.1 300.5 119.1C299.6 119.1 298.8 118.4 298.8 117.6Z" fill="black"/>
<path d="M302.2 116.8H304.3V117.2H302.2V116.8ZM302.2 117.9H304.3V118.3H302.2V117.9Z" fill="black"/>
<path d="M306.2 116H306.6V117.2H306.3L306.2 116ZM307 116H307.4V117.2H307.1L307 116Z" fill="black"/>
<path d="M308.2 116H308.7V118.9H310.5V119.3H308.3L308.2 116Z" fill="black"/>
<path d="M310.6 118C310.6 117.3 311.2 116.7 311.9 116.7C312.6 116.7 313.2 117.3 313.2 118C313.2 118.7 312.6 119.3 311.9 119.3C311.2 119.3 310.7 118.8 310.6 118.1V118ZM312.7 118C312.8 117.5 312.4 117.1 312 117.1C311.5 117 311.1 117.4 311.1 117.8C311.1 117.9 311.1 117.9 311.1 118C311 118.5 311.4 118.9 311.8 118.9C312.3 119 312.7 118.6 312.7 118.2C312.7 118.1 312.7 118.1 312.7 118Z" fill="black"/>
<path d="M315.1 116.8V117.2H315C314.6 117.2 314.2 117.5 314.2 117.9V118V119.2H313.8V116.8H314.2V117.2C314.4 116.9 314.7 116.7 315.1 116.8Z" fill="black"/>
<path d="M317.8 118.2H315.8C315.9 118.6 316.2 119 316.7 118.9C317 118.9 317.2 118.8 317.4 118.6L317.6 118.9C317.1 119.4 316.2 119.4 315.7 118.9C315.5 118.7 315.3 118.4 315.3 118C315.3 117.3 315.8 116.8 316.5 116.8C316.5 116.8 316.5 116.8 316.6 116.8C317.3 116.8 317.8 117.3 317.8 117.9V118V118.2ZM315.8 117.8H317.4C317.3 117.4 316.9 117.1 316.5 117.1C316.2 117.2 315.9 117.5 315.8 117.8Z" fill="black"/>
<path d="M322.5 117.8V119.2H322.1V117.8C322.1 117.3 321.9 117.1 321.5 117.1C321.1 117.1 320.8 117.4 320.8 117.9V119.2H320.4V117.8C320.4 117.3 320.2 117.1 319.8 117.1C319.4 117.1 319.1 117.4 319.1 117.8V117.9V119.2H318.7V116.8H319.2V117.2C319.4 116.9 319.7 116.8 320 116.8C320.4 116.8 320.7 117 320.9 117.3C321.1 117 321.5 116.8 321.8 116.8C322.4 116.8 322.8 117.3 322.8 117.8C322.5 117.8 322.5 117.8 322.5 117.8Z" fill="black"/>
<path d="M324.5 116C324.5 115.8 324.6 115.7 324.8 115.7C325 115.7 325.1 115.8 325.1 116C325.1 116.2 325 116.3 324.8 116.3C324.7 116.3 324.5 116.2 324.5 116ZM324.6 116.8H325.1V119.2H324.6V116.8Z" fill="black"/>
<path d="M328.4 118C328.4 118.7 327.9 119.2 327.3 119.3H327.2C326.9 119.3 326.5 119.2 326.3 118.9V120.2H325.9V116.8H326.3V117.2C326.5 116.9 326.8 116.8 327.2 116.8C327.9 116.8 328.4 117.3 328.4 118ZM328 118C328 117.5 327.6 117.2 327.1 117.2C326.6 117.2 326.3 117.6 326.3 118.1C326.3 118.5 326.7 118.9 327.1 118.9C327.6 118.9 328 118.5 328 118Z" fill="black"/>
<path d="M328.7 119L328.9 118.6C329.2 118.8 329.5 118.9 329.8 118.9C330.2 118.9 330.4 118.8 330.4 118.6C330.4 118 328.8 118.5 328.8 117.6C328.8 117.2 329.2 116.9 329.8 116.9C330.1 116.9 330.4 117 330.7 117.1L330.5 117.5C330.3 117.4 330 117.3 329.8 117.3C329.4 117.3 329.2 117.4 329.2 117.6C329.2 118.2 330.7 117.7 330.7 118.7C330.7 119.1 330.3 119.4 329.6 119.4C329.4 119.3 329 119.2 328.7 119Z" fill="black"/>
<path d="M333.7 116.8V119.2H333.3V118.8C333.1 119.1 332.8 119.2 332.5 119.2C331.9 119.2 331.5 118.8 331.4 118.3V118.2V116.8H331.9V118.2C331.9 118.7 332.1 118.9 332.6 118.9C333 118.9 333.3 118.6 333.4 118.2C333.4 118.1 333.4 118.1 333.4 118V116.7L333.7 116.8Z" fill="black"/>
<path d="M338.6 117.8V119.2H338.1V117.8C338.1 117.3 337.9 117.1 337.5 117.1C337.1 117.1 336.8 117.4 336.8 117.9V119.2H336.3V117.8C336.3 117.3 336.1 117.1 335.7 117.1C335.3 117.1 335 117.4 335 117.9V119.2H334.6V116.8H335V117.2C335.2 116.9 335.5 116.8 335.9 116.8C336.2 116.8 336.6 117 336.8 117.3C337 117 337.4 116.8 337.8 116.8C338.4 116.8 338.8 117.2 338.8 117.8C338.6 117.7 338.6 117.8 338.6 117.8Z" fill="black"/>
<path d="M339.3 116H339.7V117.2H339.4L339.3 116ZM340.1 116H340.5V117.2H340.2L340.1 116Z" fill="black"/>
<path d="M343.2 117.4V117.8L341.1 118.6V118.2L342.7 117.6L341.1 117V116.6L343.2 117.4Z" fill="black"/>
<path d="M345.9 117L344.3 117.6L345.9 118.2V118.6L343.8 117.8V117.4L345.9 116.6V117Z" fill="black"/>
<path d="M347.6 115.3H348L346.5 119.7H346.1L347.6 115.3Z" fill="black"/>
<path d="M350.9 117.1C350.9 117.8 350.4 118.2 349.5 118.2H348.7V119.2H348.2V116H349.5C350.4 116 350.9 116.4 350.9 117.1ZM350.4 117.1C350.4 116.6 350.1 116.4 349.5 116.4H348.7V117.8H349.5C350.2 117.8 350.5 117.6 350.4 117.1Z" fill="black"/>
<path d="M353.6 117.4V117.8L351.5 118.6V118.2L353.2 117.6L351.5 117V116.6L353.6 117.4Z" fill="black"/>
<path d="M271.4 128.1L269.8 128.7L271.4 129.3V129.7L269.3 128.9V128.5L271.4 127.7V128.1Z" fill="black"/>
<path d="M273.1 126.5H273.5L271.9 130.9H271.5L273.1 126.5Z" fill="black"/>
<path d="M276.6 129.5C276.6 130.1 276.2 130.4 275.4 130.4H273.9V127.2H275.4C276.2 127.2 276.6 127.5 276.6 128C276.6 128.3 276.4 128.6 276.2 128.7C276.3 128.8 276.6 129.1 276.6 129.5ZM274.2 127.5V128.5H275.2C275.7 128.5 276 128.3 276 128C276 127.7 275.7 127.5 275.2 127.5H274.2ZM276.1 129.5C276.1 129.1 275.8 129 275.3 129H274.2V130.1H275.3C275.8 130 276.1 129.8 276.1 129.5Z" fill="black"/>
<path d="M277 128.7C277 127.7 277.7 126.9 278.7 126.9C279.7 126.9 280.5 127.6 280.5 128.6C280.5 129.6 279.8 130.4 278.8 130.4C278.8 130.4 278.8 130.4 278.7 130.4C277.8 130.4 277.1 129.7 277 128.7C277 128.8 277 128.8 277 128.7ZM280 128.7C280 128 279.4 127.4 278.8 127.4C278.2 127.4 277.5 128 277.5 128.6C277.5 129.3 278.1 129.9 278.7 129.9C279.4 130 280 129.5 280 128.7C280 128.8 280 128.8 280 128.7Z" fill="black"/>
<path d="M281.2 127.1H282.6C283.5 127 284.3 127.7 284.4 128.6C284.5 129.5 283.8 130.3 282.9 130.4C282.8 130.4 282.7 130.4 282.6 130.4H281.2V127.1ZM282.5 130C283.2 130 283.7 129.5 283.7 128.8C283.7 128.1 283.2 127.6 282.5 127.6H281.6V130H282.5Z" fill="black"/>
<path d="M286.1 129.2V130.3H285.6V129.2L284.3 127.1H284.8L285.8 128.8L286.8 127.1H287.3L286.1 129.2Z" fill="black"/>
<path d="M289.8 128.5V128.9L287.7 129.7V129.3L289.3 128.7L287.7 128.1V127.7L289.8 128.5Z" fill="black"/>
<path d="M396.1 41.2C396.1 41.3 364 41.5 324.4 41.5C284.8 41.5 252.7 41.4 252.7 41.2C252.7 41 284.8 40.9 324.4 40.9C364 40.9 396.1 41.1 396.1 41.2Z" fill="#263238"/>
<path d="M257.1 36.1C257.1 36.6 256.7 37 256.2 37C255.7 37 255.3 36.6 255.3 36.1C255.3 35.6 255.7 35.2 256.2 35.2C256.6 35.2 257.1 35.6 257.1 36.1Z" fill="#263238"/>
<path d="M259.7 37C260.197 37 260.6 36.597 260.6 36.1C260.6 35.6029 260.197 35.2 259.7 35.2C259.203 35.2 258.8 35.6029 258.8 36.1C258.8 36.597 259.203 37 259.7 37Z" fill="#263238"/>
<path d="M264.1 36.1C264.1 36.6 263.7 37 263.2 37C262.7 37 262.3 36.6 262.3 36.1C262.3 35.6 262.7 35.2 263.2 35.2C263.7 35.2 264.1 35.6 264.1 36.1Z" fill="#263238"/>
<path d="M261.9 149.6C261.8 149.6 261.6 125.3 261.6 95.3C261.6 65.3 261.7 41 261.9 41C262.1 41 262.2 65.3 262.2 95.3C262.2 125.3 262 149.6 261.9 149.6Z" fill="#E0E0E0"/>
<path d="M436.9 97.1H383.3V135.3H436.9V97.1Z" fill="#1A5F7A"/>
<path d="M401.4 114.8V122.4H399.6V119.3H396.2V122.4H394.4V114.8H396.2V117.8H399.6V114.8H401.4Z" fill="white"/>
<path d="M404.7 116.3H402.3V114.8H408.9V116.2H406.5V122.3H404.7V116.3Z" fill="white"/>
<path d="M419 114.8H420.8V120.9H424.6V122.3H419V114.8Z" fill="white"/>
<path d="M416.5 122.5V118L414.3 121.7H413.5L411.3 118.1V122.5H409.7V114.9H411.2L414 119.6L416.8 114.9H418.2V122.5H416.5Z" fill="white"/>
<path d="M437.3 102.8C437.3 102.9 425.2 103 410.3 103C395.4 103 383.3 102.9 383.3 102.8C383.3 102.7 395.4 102.6 410.3 102.6C425.2 102.6 437.3 102.7 437.3 102.8Z" fill="white"/>
<path d="M387.7 100C387.6 100.4 387.3 100.7 386.9 100.6C386.6 100.5 386.4 100.3 386.3 100C386.4 99.6 386.7 99.3 387.1 99.4C387.4 99.5 387.6 99.7 387.7 100Z" fill="white"/>
<path d="M390.3 100C390.2 100.4 389.9 100.7 389.5 100.6C389.2 100.5 389 100.3 388.9 100C389 99.6 389.3 99.3 389.7 99.4C390 99.5 390.2 99.7 390.3 100Z" fill="white"/>
<path d="M392.9 100C393 100.4 392.7 100.8 392.3 100.8C391.9 100.9 391.5 100.6 391.5 100.2C391.4 99.8 391.7 99.4 392.1 99.4H392.2C392.6 99.4 392.9 99.6 392.9 100Z" fill="white"/>
<path d="M72.2002 96.6H32.7002V124.7H72.2002V96.6Z" fill="#1A5F7A"/>
<path d="M72.5002 100.8C72.5002 100.9 63.6002 100.9 52.6002 100.9C41.6002 100.9 32.7002 100.8 32.7002 100.8C32.7002 100.8 41.6002 100.7 52.6002 100.7C63.6002 100.7 72.5002 100.7 72.5002 100.8Z" fill="white"/>
<path d="M35.9004 98.7C35.9004 99 35.6004 99.2 35.4004 99.2C35.1004 99.2 34.9004 99 34.9004 98.8C34.9004 98.5 35.2004 98.3 35.4004 98.3C35.7004 98.2 35.9004 98.4 35.9004 98.7Z" fill="white"/>
<path d="M37.8002 98.7C37.8002 99 37.5002 99.2 37.2002 99.2C37.0002 99.2 36.8002 99 36.7002 98.7C36.7002 98.4 37.0002 98.2 37.3002 98.2C37.6002 98.3 37.8002 98.5 37.8002 98.7Z" fill="white"/>
<path d="M39.8002 98.7C39.8002 99 39.6002 99.3 39.3002 99.3C39.0002 99.3 38.7002 99.1 38.7002 98.8C38.7002 98.5 38.9002 98.2 39.2002 98.2C39.2002 98.2 39.2002 98.2 39.3002 98.2C39.5002 98.2 39.8002 98.4 39.8002 98.7Z" fill="white"/>
<path d="M69.0004 59C68.9004 54.9 72.2004 51.5 76.3004 51.5C76.4004 51.5 76.6004 51.5 76.7004 51.5C78.7004 51.4 80.6004 52.1 82.0004 53.5L81.3004 54.2C80.1004 53 78.4004 52.4 76.8004 52.4C73.2004 52.2 70.1004 54.9 69.9004 58.5C69.7004 62.1 72.4004 65.2 76.0004 65.4C76.2004 65.4 76.5004 65.4 76.7004 65.4C78.4004 65.5 80.0004 64.8 81.2004 63.6L81.9004 64.3C80.5004 65.7 78.6004 66.4 76.6004 66.4C72.5004 66.6 69.1004 63.4 68.9004 59.3C69.0004 59.2 69.0004 59.1 69.0004 59Z" fill="#1A5F7A"/>
<path d="M83.9004 64.6L84.4004 63.8C85.7004 65 87.5004 65.7 89.3004 65.7C92.3004 65.7 93.6004 64.4 93.6004 62.8C93.6004 58.4 84.4004 61 84.4004 55.6C84.4004 53.5 86.0004 51.7 89.6004 51.7C91.2004 51.7 92.7004 52.2 94.1004 53L93.7004 53.9C92.5004 53.1 91.1004 52.7 89.6004 52.7C86.7004 52.7 85.4004 54 85.4004 55.7C85.4004 60.1 94.6004 57.5 94.6004 62.9C94.6004 65 92.9004 66.8 89.3004 66.8C87.3004 66.6 85.4004 65.9 83.9004 64.6Z" fill="#1A5F7A"/>
<path d="M96.8003 64.6L97.3003 63.8C98.6003 65 100.4 65.7 102.2 65.7C105.2 65.7 106.5 64.4 106.5 62.8C106.5 58.4 97.3003 61 97.3003 55.6C97.3003 53.5 98.9003 51.7 102.5 51.7C104.1 51.7 105.6 52.2 107 53L106.6 53.9C105.4 53.1 104 52.7 102.5 52.7C99.6003 52.7 98.3003 54 98.3003 55.7C98.3003 60.1 107.5 57.5 107.5 62.9C107.5 65 105.8 66.8 102.2 66.8C100.2 66.6 98.2003 65.9 96.8003 64.6Z" fill="#1A5F7A"/>
<path d="M120.1 78.4C120.1 78.4 120.1 78.1 120.1 77.6C120.1 77.1 120.1 76.3 120.1 75.3C120.1 73.3 120.1 70.4 120 66.7C120 59.3 119.9 48.7 119.9 35.7L120.1 35.9H54.2L54.5 35.6C54.5 50.7 54.5 65.1 54.5 78.2L54.3 78L101.7 78.1L115.3 78.2L101.8 78.3L54.2 78.4H54V78.2C54 65.2 54 50.8 54 35.6V35.5H54.3L120.2 35.6H120.4V35.8C120.4 48.8 120.3 59.5 120.3 66.9C120.3 70.6 120.3 73.4 120.3 75.4C120.3 76.4 120.3 77.1 120.3 77.6C120.2 78.1 120.1 78.4 120.1 78.4Z" fill="#1A5F7A"/>
<path d="M120.1 42C120.1 42.1 105.3 42.3 87.1001 42.3C68.9001 42.3 54.1001 42.2 54.1001 42C54.1001 41.8 68.9001 41.7 87.1001 41.7C105.3 41.7 120.1 42 120.1 42Z" fill="#1A5F7A"/>
<path d="M59.1001 39C59.2001 39.4 58.9001 39.9 58.4001 39.9C58.0001 40 57.5001 39.7 57.5001 39.2C57.4001 38.8 57.7001 38.3 58.2001 38.3H58.3001C58.7001 38.2 59.1001 38.5 59.1001 39Z" fill="#1A5F7A"/>
<path d="M62 39C62.1 39.4 61.8 39.9 61.3 39.9C60.9 40 60.4 39.7 60.4 39.2C60.3 38.8 60.6 38.3 61.1 38.3H61.2C61.6 38.2 62 38.5 62 39Z" fill="#1A5F7A"/>
<path d="M64.9004 39C65.0004 39.4 64.7004 39.9 64.2004 39.9C63.8004 40 63.3004 39.7 63.3004 39.2C63.2004 38.8 63.5004 38.3 64.0004 38.3H64.1004C64.5004 38.2 64.9004 38.5 64.9004 39Z" fill="#1A5F7A"/>
<path d="M128.8 152.8L154.9 240.9C156.1 244.8 159.7 247.5 163.7 247.5L269.7 247.8C275.1 247.8 279.5 243.4 279.5 238C279.5 237.8 279.5 237.6 279.5 237.5C279.2 232.3 274.9 228.2 269.7 228.2H229.2L196.7 137.8H140C133.6 137.8 128.3 143 128.3 149.5C128.3 150.6 128.5 151.8 128.8 152.8Z" fill="#455A64"/>
<path d="M218.5 235.5C218.5 235.7 207.7 235.9 194.4 235.9C181.1 235.9 170.3 235.7 170.3 235.5C170.3 235.3 181.1 235.1 194.4 235.1C207.7 235.1 218.5 235.3 218.5 235.5Z" fill="#263238"/>
<path d="M136.6 140.6C136.8 140.5 144 161.6 152.7 187.8C161.4 214 168.3 235.1 168.1 235.2C167.9 235.3 160.7 214.2 152 188C143.3 161.8 136.4 140.7 136.6 140.6Z" fill="#263238"/>
<path d="M214.1 325.9L207.6 325.8V247.6H214.1V325.9Z" fill="#455A64"/>
<path d="M180.8 325.6H240.9L213.7 316.1H207.2L180.8 325.6Z" fill="#455A64"/>
<path d="M165.6 117.6L175.5 167.3L173.7 204.5L240.6 193.4L238 160.8L237.9 133.8L254.3 165.6L267.1 140.9L243.7 98.6C239.4 94.2 234.2 90.8 228.4 88.7C225.3 87.6 222.1 87 218.8 86.9C211.3 89.3 203.2 89.3 195.7 86.9C194.8 87 193.5 87.1 191.8 87.3H191.5C177.3 89.1 166.4 100.8 165.7 115.1L165.6 117.6Z" fill="#1A5F7A"/>
<path d="M191.8 87.3C191.8 87.3 164.3 87.5 160.9 116.5L160.4 137.8L184.1 137.6L191.8 87.3Z" fill="#1A5F7A"/>
<path d="M257.4 124.6C257.4 124.8 235.8 125 209.1 125C182.4 125 160.9 124.8 160.9 124.6C160.9 124.4 182.5 124.2 209.2 124.2C235.9 124.2 257.4 124.4 257.4 124.6Z" fill="#FAFAFA"/>
<path d="M257.4 129.3C257.4 129.5 235.8 129.7 209.1 129.7C182.4 129.7 160.8 129.5 160.8 129.3C160.8 129.1 182.4 128.9 209.1 128.9C235.8 128.9 257.4 129 257.4 129.3Z" fill="#FAFAFA"/>
<path d="M255.9 120.8C255.9 121 234.6 121.2 208.4 121.2C182.2 121.2 160.9 121 160.9 120.8C160.9 120.6 182.2 120.4 208.4 120.4C234.6 120.4 255.9 120.6 255.9 120.8Z" fill="#FAFAFA"/>
<path d="M237.6 165.6C237.4 165.6 237.5 153.8 237.8 139.3C238.1 124.8 238.6 113 238.8 113C239 113 238.9 124.8 238.6 139.3C238.3 153.8 237.8 165.6 237.6 165.6Z" fill="#263238"/>
<path d="M228.2 146.5C228.2 146.5 241.2 147.4 243.5 150.9C245.8 154.4 249.4 164.1 248.1 164.2C247.3 164.2 246.4 164 245.8 163.5L242.2 157.2C242.2 157.2 242.8 163.3 240.6 163.4C238.4 163.5 227.9 165.6 227.9 165.6L228.2 146.5Z" fill="#FFBE9D"/>
<path d="M160.5 132.2L160.4 165.7C160.8 172.7 166.8 178.1 173.8 177.7C174.5 177.7 175.2 177.6 175.8 177.4L228.2 166.6L228.1 145.1L182.9 153.8L182.3 131L160.5 132.2Z" fill="#1A5F7A"/>
<path d="M190.4 174.7C190.6 174.6 190.9 174.6 191.1 174.5L193.1 174L200.8 172.4L228.1 166.8L227.8 167.1C227.8 160.4 227.8 152.9 227.8 145L228.2 145.4L219 147.2L183 154.1L182.6 154.2V153.9C182.9 143.9 183.2 135.6 183.4 129.7C183.5 126.8 183.6 124.6 183.7 122.9C183.7 122.2 183.8 121.6 183.8 121.1C183.8 120.9 183.8 120.7 183.9 120.5C183.9 120.7 183.9 120.9 183.9 121.1C183.9 121.6 183.9 122.1 183.9 122.9C183.9 124.5 183.8 126.8 183.8 129.7C183.7 135.6 183.5 143.9 183.2 153.9L182.8 153.6L218.8 146.6L228 144.8L228.4 144.7V145.2C228.4 153.1 228.4 160.5 228.4 167.3V167.6H228.1L200.7 172.9L193 174.4L190.9 174.8C190.9 174.7 190.6 174.7 190.4 174.7Z" fill="#263238"/>
<path d="M220.4 87.3C220.4 87.3 220.5 87.5 220.6 87.8C220.8 88.3 220.9 88.8 221 89.3C221.4 91.2 221.3 93.1 220.8 94.9C220 97.6 218.4 100 216.3 101.9C213.7 104.2 210.3 105.5 206.8 105.5C203.3 105.6 199.9 104.2 197.4 101.7C195.4 99.6 194.2 97 193.9 94.1C193.7 92.2 193.9 90.3 194.6 88.5C194.8 88 195 87.6 195.3 87.1C195.5 86.8 195.6 86.7 195.6 86.7C195.6 86.7 195.3 87.4 194.9 88.6C194.4 90.4 194.2 92.2 194.5 94C194.9 96.7 196.1 99.2 198 101.2C200.4 103.5 203.6 104.8 206.9 104.8C210.2 104.8 213.5 103.6 216 101.4C218.1 99.6 219.7 97.3 220.5 94.7C221 92.9 221.2 91.1 221 89.3C220.6 88 220.3 87.3 220.4 87.3Z" fill="#263238"/>
<path d="M223 168.4C222.9 167.3 222.9 166.2 223 165.1C223.1 163.1 223.2 160.3 223.2 157.2C223.2 154.1 223.2 151.3 223.1 149.2C223 148.1 223 147 223.1 145.9C223.4 147 223.6 148.1 223.6 149.2C223.8 151.2 223.9 154.1 223.9 157.2C223.9 160.3 223.7 163.1 223.5 165.2C223.4 166.3 223.3 167.3 223 168.4Z" fill="#FAFAFA"/>
<path d="M220.2 168.9C220.1 167.8 220 166.7 220.1 165.6C220.1 163.3 220.2 160.6 220.2 157.7V149.8C220.1 148.7 220.2 147.6 220.3 146.5C220.6 147.6 220.7 148.7 220.7 149.8C220.8 151.8 220.9 154.6 220.9 157.7C220.9 160.8 220.8 163.6 220.6 165.6C220.7 166.8 220.5 167.9 220.2 168.9Z" fill="#FAFAFA"/>
<path d="M272.7 302.1L282.6 329.4L296.7 348.7C297.7 350 297.3 351.9 296 352.9L295.9 353C295.1 353.5 294.1 353.6 293.2 353.2C287.5 350.8 266.7 342.1 266.1 340.1C265.4 337.7 252 308.4 252 308.4L272.7 302.1Z" fill="#1A5F7A"/>
<g opacity="0.6">
<path d="M295.9 352.9L265.4 338.2L265.9 339.3C266.3 340.3 267 341.1 267.9 341.6C270.4 343 277.4 346.5 293.1 353.1C294 353.6 295 353.5 295.9 352.9Z" fill="white"/>
</g>
<g opacity="0.6">
<path d="M267.5 327.3C268.4 327.5 268.9 328.4 268.8 329.3C268.6 330.2 267.7 330.8 266.8 330.6C265.9 330.4 265.3 329.4 265.4 328.5C265.7 327.6 266.7 327.1 267.6 327.4" fill="white"/>
</g>
<path d="M285.1 343.5C285.4 342.4 286 341.4 286.7 340.5C288 339.1 289.6 338.9 289.6 338.7C289.6 338.5 289.2 338.6 288.5 338.7C286.7 339.2 285.4 340.6 285.1 342.4C284.9 343.1 285 343.5 285.1 343.5Z" fill="#263238"/>
<path d="M288.4 346.4C288.6 346.5 289.1 345.3 290.3 344.3C291.1 343.8 291.9 343.3 292.8 342.9C292.8 342.7 291.3 342.7 289.9 343.8C288.5 344.9 288.3 346.4 288.4 346.4Z" fill="#263238"/>
<path d="M279.7 340.3C279.9 340.4 280.7 338.5 282.5 336.9C284.3 335.3 286.2 334.6 286.1 334.4C286 334.2 283.9 334.6 282 336.4C280.1 338.2 279.5 340.3 279.7 340.3Z" fill="#263238"/>
<path d="M276 332.2C276.1 332.3 277.4 331.1 279.3 330.3C281.2 329.5 282.9 329.3 282.9 329.2C282.9 329.1 281.1 328.9 279 329.8C276.9 330.7 275.9 332.2 276 332.2Z" fill="#263238"/>
<path d="M272.9 324.3C273 324.4 274.2 322.9 276.3 322.2C278.4 321.5 280.2 321.9 280.2 321.7C280.2 321.5 279.8 321.4 279 321.3C277 321 274.9 321.7 273.5 323.2C273 323.8 272.8 324.3 272.9 324.3Z" fill="#263238"/>
<path d="M275.6 320.8C275.5 320.4 275.4 320.1 275.2 319.8C274.7 318.9 274.1 318.1 273.3 317.4C272.8 316.9 272.1 316.5 271.4 316.4C270.9 316.4 270.4 316.7 270.2 317.1C270 317.5 270 318 270.2 318.5C271 320.4 273.1 321.3 275.1 320.8C277 320.3 278.4 318.7 278.6 316.7C278.7 316.2 278.5 315.7 278.2 315.4C277.8 315.1 277.3 315 276.8 315.3C276.2 315.7 275.7 316.3 275.4 316.9C274.9 317.8 274.6 318.7 274.4 319.7C274.3 320.1 274.3 320.4 274.4 320.8C274.7 319.5 275.2 318.3 275.9 317.1C276.2 316.5 276.6 316.1 277.2 315.7C277.4 315.6 277.7 315.6 278 315.8C278.2 316.1 278.3 316.4 278.2 316.7C277.9 318.4 276.7 319.8 275.1 320.2C273.4 320.6 271.7 319.8 271 318.3C270.8 318 270.8 317.6 270.9 317.3C271 317 271.3 316.9 271.5 316.9C272.1 317 272.7 317.3 273.1 317.7C274.2 318.6 275 319.6 275.6 320.8Z" fill="#263238"/>
<path d="M314.5 294.9L313.6 317.1C313.6 317.1 335.8 325.4 336.1 329.5L293.1 329.4L293 294.8L314.5 294.9Z" fill="#1A5F7A"/>
<g opacity="0.6">
<path d="M300.4 315.2C299.5 315.5 299 316.3 299.2 317.2C299.4 318.1 300.3 318.6 301.2 318.4C302.1 318.1 302.7 317.2 302.5 316.3C302.2 315.4 301.2 315 300.3 315.3" fill="white"/>
</g>
<g opacity="0.6">
<path d="M293.1 329.4V325.9L334.5 327.3C334.5 327.3 336.4 328.1 336.2 329.5L293.1 329.4Z" fill="white"/>
</g>
<path d="M314.4 316.9C314.4 317.1 313.4 317.2 312.3 317.9C311.2 318.6 310.7 319.5 310.5 319.4C310.3 319.3 310.6 318.1 311.9 317.3C313.2 316.5 314.4 316.7 314.4 316.9Z" fill="#263238"/>
<path d="M318.9 318.8C318.9 319 318 319.4 317.3 320.3C316.6 321.2 316.4 322.1 316.2 322.1C316 322.1 315.9 320.9 316.8 319.8C317.7 318.7 318.9 318.6 318.9 318.8Z" fill="#263238"/>
<path d="M321.4 324.2C321.2 324.2 320.9 323.2 321.5 322.1C322.1 321 323 320.5 323.1 320.7C323.2 320.9 322.6 321.5 322.1 322.4C321.6 323.3 321.7 324.2 321.4 324.2Z" fill="#263238"/>
<path d="M314 311.8C313.9 312 313 311.7 311.8 311.8C310.6 311.9 309.7 312.3 309.6 312.1C309.5 311.9 310.4 311.2 311.8 311.1C313.2 311 314.1 311.7 314 311.8Z" fill="#263238"/>
<g opacity="0.3">
<path d="M314.4 299.3L314.2 303.3L293.1 303V299.5L314.4 299.3Z" fill="black"/>
</g>
<path d="M314.1 307.4C313.4 307.6 312.6 307.6 311.9 307.4C311.1 307.3 310.4 307 309.7 306.7C309.3 306.5 308.9 306.3 308.5 306C308.3 305.9 308 305.7 307.9 305.5C307.6 305.2 307.6 304.7 307.8 304.4C308 304.1 308.4 303.9 308.7 303.9C309 303.9 309.2 303.9 309.5 304C310 304.1 310.4 304.3 310.8 304.5C311.5 304.8 312.2 305.3 312.8 305.8C313.8 306.7 314.1 307.5 314.1 307.6C314.1 307.7 313.5 307 312.5 306.2C311.9 305.8 311.3 305.4 310.6 305.1C310.2 304.9 309.8 304.8 309.4 304.7C308.9 304.6 308.5 304.6 308.4 304.8C308.3 305 308.4 304.9 308.4 305C308.5 305.1 308.7 305.3 308.9 305.4C309.3 305.6 309.6 305.9 310 306C310.7 306.3 311.4 306.6 312.1 306.8C312.7 307 313.4 307.1 314.1 307.4Z" fill="#263238"/>
<path d="M313.8 307.7C313.4 307.1 313.2 306.3 313.2 305.6C313.2 304.8 313.3 304 313.5 303.2C313.6 302.8 313.8 302.3 314 301.9C314.2 301.3 314.8 300.9 315.4 300.8C315.8 300.8 316.1 301 316.3 301.4C316.4 301.7 316.5 301.9 316.5 302.2C316.6 302.7 316.6 303.2 316.5 303.7C316.4 304.5 316.1 305.3 315.6 305.9C314.8 307 313.9 307.3 313.9 307.2C313.9 307.1 314.6 306.7 315.2 305.6C315.6 305 315.8 304.3 315.9 303.6C316 303.2 316 302.8 315.9 302.4C315.8 301.9 315.7 301.6 315.5 301.6C315.3 301.6 314.9 301.9 314.7 302.3C314.5 302.7 314.3 303.1 314.2 303.5C314 304.2 313.8 304.9 313.8 305.6C313.7 306.8 314 307.6 313.8 307.7Z" fill="#263238"/>
<path d="M293.1 188.7C267.7 191.3 234 194.8 234 194.8L238.6 236.2C238.6 236.2 288.1 223.1 287.8 224.2C287.5 225.3 290.1 312.3 290.1 312.3H319.9L320.5 213.8C320.7 200.1 309.8 188.9 296.1 188.7C295 188.5 294.1 188.6 293.1 188.7Z" fill="#263238"/>
<path d="M173.1 205.4V218.2C173.1 226.9 183 236.2 191.8 236.2H198.6C203.9 236.2 212.3 232.3 216.6 229.2L219.2 227.3L250.3 323.5C250.3 323.5 285.8 317.1 285.8 316C285.8 314.9 261.7 237.2 250.6 201.1C246.1 186.4 230.3 177.8 215.7 182.8C215.2 183 214.7 183.2 214.2 183.4C198.2 189.8 173.1 205.4 173.1 205.4Z" fill="#263238"/>
<path d="M285.7 316C285.6 315.9 285.6 315.8 285.6 315.7C285.5 315.4 285.4 315.1 285.2 314.7C284.9 313.8 284.4 312.5 283.8 310.7C282.6 307.2 281 302.2 279 295.9C275 283.4 269.7 266 263.9 246.8C261 237.2 258.3 228 255.8 219.7C254.6 215.5 253.4 211.6 252.3 207.9C251.7 206 251.2 204.3 250.7 202.5C250.2 200.8 249.7 199.2 249.1 197.6C248 194.9 246.3 192.5 244.1 190.5C242.5 189 240.7 187.6 238.8 186.4C237.3 185.4 236.1 184.6 235.2 184.1L234.3 183.5C234.2 183.4 234.1 183.4 234 183.3C234.1 183.3 234.2 183.4 234.3 183.5L235.3 184C236.2 184.5 237.4 185.2 238.9 186.2C240.8 187.4 242.6 188.7 244.3 190.2C246.6 192.2 248.3 194.6 249.5 197.4C250.1 199 250.7 200.6 251.2 202.3C251.7 204 252.3 205.8 252.8 207.7L256.4 219.5C258.9 227.8 261.7 237 264.6 246.6C270.4 265.8 275.6 283.1 279.4 295.8L284 310.6L285.3 314.6C285.4 315 285.5 315.4 285.6 315.6C285.7 315.8 285.7 316 285.7 316Z" fill="#455A64"/>
<path d="M293.2 211.7C293.4 211.8 291.7 214.4 290.3 217.8C288.9 221.2 288.3 224.2 288 224.2C287.7 224.2 288.1 221.1 289.6 217.5C291.1 213.9 293 211.6 293.2 211.7Z" fill="#455A64"/>
<path d="M298.9 215.7C299 215.9 296.4 217 293.8 219.1C291.2 221.2 289.4 223.4 289.2 223.3C289 223.2 290.5 220.7 293.3 218.5C296.1 216.3 298.8 215.5 298.9 215.7Z" fill="#455A64"/>
<path d="M250.5 323.5C250.3 323.6 241.9 297.8 231.8 266C221.7 234.2 213.6 208.3 213.8 208.3C214 208.3 222.4 234 232.5 265.8C242.6 297.6 250.7 323.5 250.5 323.5Z" fill="#455A64"/>
<path d="M212.4 173.4L314 174.4L333 120.8L259 121.3L241.9 169.5L212.4 170V173.4Z" fill="#455A64"/>
<path d="M289.4 152.2C287.1 151.9 285.6 149.8 285.9 147.5C286.2 145.2 288.3 143.7 290.6 144C292.9 144.3 294.4 146.4 294.1 148.7C293.8 151 291.7 152.6 289.4 152.2Z" fill="white"/>
<path d="M204.1 28.4C205.1 24.8 207.7 23.1 211.2 21.9C214.8 20.7 218.7 21.3 221.7 23.6C223.7 25.1 225.2 27.3 227.5 28.1C231.3 29.4 235.8 26.6 239.5 28.3C242.1 29.5 243.3 32.6 242.1 35.2C241.2 37.2 239.2 38.4 237 38.3C239.5 39.2 240.3 42.8 238.8 45C237.3 47.2 234.3 48.1 231.7 47.6C229.1 47 226.7 45.6 224.8 43.7C222.8 41.9 221 39.9 218.9 38.3C216.8 36.6 214.2 35.6 211.5 35.6C207.9 35.8 204.8 38.5 203.2 41.7C201.6 44.9 201.2 48.6 201 52.2C200.8 55.8 200.7 59.5 199.7 62.9C199.6 63.3 199.4 63.8 199 63.9C198.4 64.1 197.9 63.5 197.6 62.9C194.3 56.8 192.3 50.1 191.5 43.2C191.1 39.2 191.2 35.4 193.4 32.1C195.6 28.8 201.3 26.3 204.1 28.4Z" fill="#263238"/>
<path d="M197.1 45.1L195.2 85.6C194.9 92.5 195.8 102.7 206.7 102.7C216.2 102 218.9 93.1 219.2 86.7C219.3 83.7 219.4 81.1 219.5 80.8C219.5 80.8 229.8 80.3 231.1 70.1C231.7 65.2 232.1 55 232.3 45.7C232.5 35.8 225.2 27.3 215.3 26.3L214.3 26.2C203.7 25.7 197.3 34.5 197.1 45.1Z" fill="#FFBE9D"/>
<path d="M219.7 80.6C215 80.2 210.5 78.4 206.8 75.4C206.8 75.4 209.2 83 219.4 83.2L219.7 80.6Z" fill="#EB996E"/>
<path d="M228.7 52.3C228.6 53.1 227.9 53.7 227.1 53.6C226.3 53.6 225.7 52.9 225.7 52.2C225.8 51.4 226.5 50.8 227.3 50.9C228.1 50.8 228.7 51.4 228.7 52.3C228.7 52.2 228.7 52.2 228.7 52.3Z" fill="#263238"/>
<path d="M229.7 50.5C229.5 50.7 228.5 49.7 226.9 49.6C225.3 49.5 224.1 50.1 224 49.9C223.9 49.7 224.1 49.5 224.7 49.2C225.4 48.8 226.3 48.6 227.1 48.7C227.9 48.8 228.7 49.1 229.3 49.7C229.6 50.1 229.8 50.5 229.7 50.5Z" fill="#263238"/>
<path d="M213.3 51.2C213.2 52 212.5 52.6 211.7 52.5C210.9 52.5 210.3 51.8 210.3 51C210.4 50.2 211.1 49.6 211.9 49.7C212.7 49.7 213.3 50.4 213.3 51.2C213.3 51.1 213.3 51.1 213.3 51.2Z" fill="#263238"/>
<path d="M214.3 49.2C214.1 49.4 213.1 48.4 211.5 48.3C209.9 48.2 208.7 48.8 208.6 48.6C208.5 48.4 208.7 48.2 209.3 47.9C210 47.5 210.9 47.3 211.7 47.4C212.5 47.5 213.3 47.8 213.9 48.4C214.2 48.7 214.4 49.1 214.3 49.2Z" fill="#263238"/>
<path d="M218.7 61.4C219.6 61.2 220.4 61.2 221.3 61.2C221.7 61.2 222.1 61.2 222.2 60.9C222.3 60.5 222.2 60.1 222.1 59.7C221.8 58.7 221.5 57.6 221.2 56.5C220 52 219.2 48.3 219.4 48.3C219.6 48.3 220.7 51.9 221.9 56.4C222.2 57.5 222.5 58.6 222.7 59.6C222.9 60.1 222.9 60.7 222.7 61.2C222.6 61.5 222.3 61.7 222 61.7C221.8 61.7 221.5 61.7 221.3 61.7C220.4 61.6 219.5 61.6 218.7 61.4Z" fill="#263238"/>
<path d="M214 62C214.2 62 214.1 63.7 215.4 65.1C216.7 66.5 218.5 66.5 218.5 66.7C218.5 66.9 218.1 67 217.3 66.9C216.3 66.8 215.4 66.4 214.7 65.7C214 65 213.6 64.1 213.6 63.1C213.6 62.4 213.9 62 214 62Z" fill="#263238"/>
<path d="M215.3 43.1C215.1 43.5 213.6 43.1 211.7 43.2C209.8 43.3 208.3 43.6 208.1 43.2C208 43 208.3 42.6 209 42.3C210.7 41.4 212.8 41.4 214.5 42.3C215.1 42.5 215.4 42.9 215.3 43.1Z" fill="#263238"/>
<path d="M229.6 45.9C229.3 46.2 228.2 45.7 227 45.6C225.8 45.5 224.6 45.6 224.4 45.2C224.3 45 224.5 44.7 225 44.4C225.7 44.1 226.5 43.9 227.2 44C227.9 44.1 228.6 44.4 229.2 44.9C229.6 45.4 229.7 45.8 229.6 45.9Z" fill="#263238"/>
<path d="M197.1 52.8C196.9 52.7 190.3 50 189.8 57C189.3 64 196.4 63.1 196.4 62.9C196.4 62.7 197.1 52.8 197.1 52.8Z" fill="#FFBE9D"/>
<path d="M194.5 60C194.5 60 194.4 60.1 194.2 60.2C193.9 60.3 193.6 60.3 193.3 60.1C192.4 59.4 192 58.4 192.1 57.3C192.1 56.7 192.3 56.1 192.6 55.6C192.8 55.2 193.1 54.8 193.6 54.7C193.9 54.7 194.2 54.8 194.3 55.1C194.4 55.3 194.3 55.4 194.4 55.5C194.5 55.6 194.6 55.4 194.5 55.1C194.5 54.9 194.4 54.8 194.3 54.7C194.1 54.5 193.9 54.5 193.6 54.5C193 54.6 192.5 55 192.2 55.5C191.9 56.1 191.7 56.7 191.6 57.4C191.5 58.8 192.2 60.2 193.2 60.5C193.6 60.6 194 60.6 194.3 60.4C194.5 60.2 194.6 60 194.5 60Z" fill="#EB996E"/>
<path d="M234.8 43.8C230.1 44.5 225.4 42.9 222.1 39.5C219.9 37.1 218.3 33.9 215.3 32.6C213.2 31.8 210.9 31.9 208.9 32.8C206.9 33.7 205.1 35.1 203.6 36.7C205 42.1 203.1 47.7 201.2 52.9C201 53.5 200.7 54 200.2 54.4C199.3 55 198.1 54.3 197.5 53.5C196.6 52.1 196.1 50.4 196.1 48.8C195.8 45 196.2 41.2 197.4 37.5C198.6 33.9 200.8 30.6 203.8 28.2C207.7 25.3 212.5 24.1 217.3 24.7C222 25.3 226.5 27.5 229.9 30.8C231.6 32.3 232.9 34.1 233.7 36.2" fill="#263238"/>
<path d="M39.1998 258.9C42.7998 257.2 46.8998 256.7 50.8998 257.5C52.9998 257.9 55.1998 258.5 56.6998 260.1C58.1998 261.7 58.3998 264.5 56.7998 265.9C55.6998 266.6 54.3998 266.9 53.0998 266.8C49.9998 266.8 46.5998 266.2 44.0998 268.1C42.6998 269.2 41.6998 270.9 40.0998 271.5C38.3998 271.9 36.5998 271.1 35.6998 269.5C34.8998 268 34.6998 266.2 35.1998 264.5C35.5998 262.1 37.0998 260 39.1998 258.9Z" fill="#1A5F7A"/>
<path d="M31.1 243.1C33.3 246.2 37.5 245.2 39.5 243.3C41.5 241.4 42.3 238.7 43 236C44.7 230 46.5 223.7 45.2 217.6C44.9 215.7 44.1 214 42.8 212.6C41.5 211.2 39.6 210.5 37.7 210.9C35.6 211.5 34.2 213.6 33.3 215.5C30.5 221.4 29 227.8 29 234.3C29 237.4 29.3 240.6 31.1 243.1Z" fill="#1A5F7A"/>
<path d="M25.1 247.6C27.4 244.6 28 240.7 26.9 237.2C25.7 233.7 23.6 230.6 20.7 228.2C17.5 225.3 13.8 223.1 9.69999 221.7C8.09999 221.1 6.39999 220.8 4.69999 220.9C2.99999 221 1.39999 221.9 0.499986 223.4C-0.700014 225.6 0.499986 228.3 1.69999 230.5C3.79999 234.4 6.29999 238.1 8.99999 241.6C11.2 244.4 13.7 247.2 17 248.4C20.3 249.6 23.8 249.5 25.5 247.2" fill="#1A5F7A"/>
<path d="M30.8999 290.1C30.9999 289.6 31.0999 289.2 31.0999 288.7C31.1999 287.7 31.2999 286.4 31.4999 284.8C31.6999 282.9 31.9999 281 32.3999 279.1C32.8999 276.8 33.5999 274.6 34.4999 272.4C35.3999 270.2 36.4999 268.2 37.8999 266.4C38.9999 264.9 40.4999 263.6 42.1999 262.8C43.2999 262.2 44.5999 261.8 45.7999 261.7C46.2999 261.7 46.6999 261.6 47.1999 261.5C46.6999 261.5 46.1999 261.5 45.7999 261.5C44.4999 261.6 43.1999 261.9 41.9999 262.5C40.1999 263.3 38.6999 264.6 37.4999 266.1C35.9999 268 34.8999 270 33.9999 272.3C33.0999 274.5 32.4999 276.8 31.9999 279.1C31.5999 281 31.3999 282.9 31.1999 284.8C31.0999 286.4 30.9999 287.8 30.9999 288.7C30.8999 289.2 30.8999 289.6 30.8999 290.1Z" fill="#263238"/>
<path d="M31.2 287.1C31.2 286.9 31.2 286.7 31.2 286.5C31.2 286 31.2 285.4 31.2 284.6C31.2 283 31.2 280.6 31.3 277.7C31.4 271.9 31.9 265.6 32.9 256.8C33.8 248.5 35.1 238.8 36.4 232.5C36.7 231.1 36.9 229.8 37.2 228.7C37.5 227.6 37.7 226.6 37.9 225.8C38.1 225 38.2 224.4 38.3 224C38.4 223.8 38.4 223.6 38.4 223.4C38.3 223.6 38.2 223.8 38.2 224C38 224.5 37.9 225.1 37.7 225.8C37.5 226.5 37.2 227.6 36.9 228.7C36.6 229.8 36.3 231.1 36 232.5C34.4 239.9 33.2 247.4 32.4 255C31.5 263.9 31 271.9 31 277.8C31 280.7 31 283.1 31.1 284.7C31.1 285.5 31.2 286.1 31.2 286.6C31.1 286.7 31.1 286.9 31.2 287.1Z" fill="#263238"/>
<path d="M31.2 271.6C31.3 270.9 31.3 270.3 31.2 269.6C31.1 267.8 30.9 266 30.6 264.3C30.2 261.7 29.6 259.1 28.9 256.6C28.1 253.5 27 250.4 25.7 247.4C23.5 241.9 20.2 236.9 16.2 232.6C15.5 231.9 14.7 231.2 14 230.5C13.7 230.2 13.3 229.9 13 229.7L12.1 229.1C11.6 228.7 11 228.3 10.5 228C12.4 229.5 14.2 231.1 15.9 232.8C19.8 237.2 22.9 242.1 25.2 247.6C26.5 250.5 27.6 253.6 28.5 256.7C29.3 259.6 29.9 262.2 30.3 264.4C30.7 266.6 30.9 268.4 31.1 269.7C31 270.3 31.1 271 31.2 271.6Z" fill="#263238"/>
<path d="M16.2002 299L17.7002 320.4H45.2002L46.7002 299H16.2002Z" fill="#263238"/>
<path d="M50 290.6H13.5V299H50V290.6Z" fill="#263238"/>
<path d="M13.5 319.5V321.9H15.2H49.4V319.5H13.5Z" fill="#455A64"/>
<path d="M16.9002 326L15.2002 321.9H48.1002L46.1002 326H16.9002Z" fill="#455A64"/>
<path d="M46.2001 306C46.2001 306.1 46.1001 306.1 46.1001 306.2L45.7001 306.7L44.1001 308.7L44.0001 308.8L43.9001 308.7L40.0001 303.3H40.2001L36.3001 308.8L36.2001 309L36.1001 308.8C34.7001 307.1 33.1001 305.3 31.5001 303.3H31.8001C31.7001 303.4 31.6001 303.5 31.6001 303.6L27.5001 308.7L27.4001 308.9L27.3001 308.7L23.4001 303.2H23.6001L18.8001 308.7L18.7001 308.8L18.6001 308.7C18.0001 307.7 17.5001 306.8 17.1001 306.2L16.7001 305.5L16.6001 305.3C16.6001 305.3 16.7001 305.4 16.8001 305.5L17.2001 306.1L18.8001 308.6H18.6001L23.3001 303.1L23.4001 303L23.5001 303.1L27.4001 308.5H27.1001L31.2001 303.4L31.4001 303.1L31.5001 302.9L31.6001 303.1L36.2001 308.6H35.9001L39.8001 303.2L39.9001 303L40.0001 303.2L43.8001 308.7H43.6001L45.3001 306.7L45.7001 306.2C46.1001 306 46.2001 306 46.2001 306Z" fill="#E0E0E0"/>
<path d="M47.1 298.8C47.1 298.9 40.2 299 31.8 299C23.4 299 16.5 298.9 16.5 298.8C16.5 298.7 23.4 298.6 31.8 298.6C40.2 298.6 47.1 298.8 47.1 298.8Z" fill="#455A64"/>
<path d="M48.5001 322.1C48.5001 322.2 41.0001 322.3 31.8001 322.3C22.6001 322.3 15.1001 322.2 15.1001 322.1C15.1001 322 22.6001 321.9 31.8001 321.9C41.0001 321.9 48.5001 322 48.5001 322.1Z" fill="#263238"/>
<path d="M372.6 76.4L353.6 156.1H358.9L377.7 76.4H372.6Z" fill="#263238"/>
<path d="M365.3 128.8C365 130.3 373.9 173.7 373.9 173.7H369.6L362.8 139.3L365.3 128.8Z" fill="#263238"/>
<path d="M428.7 231.2H339.5V325.8H428.7V231.2Z" fill="#1A5F7A"/>
<path d="M433.1 245H428.7V249.4H433.1V245Z" fill="#263238"/>
<path d="M433.1 258.9H428.7V263.3H433.1V258.9Z" fill="#263238"/>
<path d="M433.1 272.8H428.7V277.2H433.1V272.8Z" fill="#263238"/>
<path d="M433.1 286.7H428.7V291.1H433.1V286.7Z" fill="#263238"/>
<path d="M433.3 274.1C433.7 274 434.2 273.9 434.6 273.8C435.8 273.6 437.1 273.4 438.4 273.4C440.3 273.4 442.2 273.9 443.8 274.8C445.9 276.1 447 278.4 446.8 280.8C446.7 282 446.3 283.2 445.7 284.2C445.1 285.2 444.3 286 443.4 286.6C441.9 287.7 440.1 288.4 438.2 288.7C437 288.9 435.7 288.9 434.4 288.8C433.9 288.8 433.5 288.7 433 288.6C433.5 288.6 433.9 288.6 434.4 288.6C435.6 288.6 436.9 288.5 438.1 288.3C439.9 288 441.6 287.3 443.1 286.2C444.9 284.9 446.1 282.9 446.3 280.7C446.5 278.5 445.5 276.3 443.5 275.1C441.9 274.1 440.2 273.6 438.3 273.6C437.1 273.6 435.8 273.6 434.6 273.8C434.2 274.1 433.7 274.1 433.3 274.1Z" fill="#263238"/>
<path d="M432.2 260.3C432.3 260.2 432.5 260.1 432.6 260.1C433 259.9 433.5 259.7 433.9 259.6C435.6 259.1 437.3 259 439 259.3C439.6 259.4 440.1 259.6 440.6 259.9C441.2 260.3 441.6 260.8 441.7 261.5C442.2 263.7 441 266 438.8 266.9C438 267.2 437.1 267.2 436.4 266.8C435.6 266.4 435.1 265.6 435 264.7C435 263.8 435.6 262.9 436.4 262.5C437.2 262.1 438.1 262 438.9 262.2C439.7 262.4 440.5 262.7 441.1 263.3C442.3 264.3 443.1 265.7 443.3 267.3C443.4 268.7 443 270.2 442.2 271.3C441.5 272.3 440.5 273.1 439.5 273.6C437.9 274.4 436.2 274.8 434.5 274.9C433.9 274.9 433.4 275 433.1 275C432.9 275 432.8 275 432.6 275C432.6 275 433.3 274.9 434.5 274.8C436.2 274.6 437.8 274.1 439.3 273.4C440.3 272.8 441.2 272.1 441.9 271.2C442.7 270.2 443 268.8 442.9 267.6C442.7 266.2 442 264.9 440.8 264C440.2 263.5 439.5 263.2 438.8 263C438.1 262.8 437.3 262.9 436.6 263.2C435.9 263.5 435.5 264.2 435.5 264.9C435.6 265.6 436 266.2 436.6 266.5C437.2 266.8 437.9 266.9 438.6 266.6C439.2 266.4 439.8 265.9 440.2 265.4C441.1 264.4 441.5 263.1 441.2 261.8C440.8 260.7 439.9 259.9 438.7 259.8C437 259.4 435.3 259.5 433.7 259.9C432.8 260 432.2 260.3 432.2 260.3Z" fill="#263238"/>
<path d="M432.2 246.7C432.5 246.6 432.9 246.5 433.2 246.5C434.1 246.4 435 246.5 435.9 246.8C437.2 247.2 438.3 248 439.2 249C440.3 250.3 440.9 251.9 440.9 253.6C441 255.3 440.5 256.9 439.5 258.3C438.7 259.4 437.6 260.2 436.3 260.7C435.5 261.1 434.6 261.2 433.7 261.2C433.4 261.2 433 261.2 432.7 261.1C433.9 261.1 435.1 260.8 436.2 260.3C437.4 259.8 438.4 258.9 439.2 257.9C441 255.3 440.9 251.7 438.9 249.2C438.1 248.2 437 247.5 435.8 247C434.6 246.8 433.4 246.6 432.2 246.7Z" fill="#263238"/>
<path d="M366 180.9C366.3 181.5 366.6 182.1 366.8 182.7C367.3 184.5 367.7 186.3 368 188.1C368.4 190.5 368.7 193.4 369 196.7C369.3 200 369.6 203.9 370.1 208.2C370.2 209.2 370.4 210.3 370.6 211.4C370.8 212.5 371.1 213.6 371.6 214.6C372.2 215.6 372.9 216.5 373.8 217.3C376.5 219.9 380.1 221.6 383.9 222C386.6 222.3 389.3 221.8 391.8 220.6C394.4 219.3 396.2 217 396.9 214.2C397.2 212.8 397.1 211.3 396.6 210C396 208.6 395.1 207.5 393.8 206.6C392.5 205.8 391.1 205.3 389.6 205.2C388.1 205.1 386.6 205.6 385.3 206.4C384.7 206.8 384.2 207.4 383.8 208.1C383.5 208.8 383.4 209.5 383.5 210.3C383.9 211.8 384.9 213.1 386.3 213.8C387.7 214.5 389.3 214.9 390.9 215.1C392.5 215.3 394.1 215.4 395.6 215.4C398.7 215.4 401.8 215.2 404.9 214.9C411 214.2 416.9 213.2 422.5 213.2C428.1 213.2 433.6 213.9 438.2 216.2C440.4 217.3 442.4 218.7 444 220.6C445.5 222.3 446.5 224.4 447 226.6C447.8 230.4 447.2 234.4 445.2 237.8C443.7 240.3 441.7 242.5 439.3 244.1C437.8 245.1 436.1 246 434.4 246.6C433.8 246.8 433.2 247 432.6 247.1L433.1 246.9C433.4 246.8 433.9 246.6 434.4 246.4C436.1 245.7 437.7 244.9 439.2 243.8C441.6 242.2 443.6 240 445 237.5C446.8 234.1 447.4 230.2 446.6 226.5C446.1 224.3 445.1 222.3 443.6 220.7C442 218.9 440 217.5 437.9 216.5C433.4 214.3 428 213.5 422.4 213.6C416.8 213.7 410.9 214.6 404.8 215.3C401.7 215.7 398.6 215.9 395.4 215.8C393.8 215.8 392.2 215.7 390.6 215.5C389 215.4 387.3 214.9 385.9 214.2C384.4 213.4 383.3 212 382.9 210.3C382.7 209.5 382.9 208.6 383.2 207.8C383.6 207 384.1 206.4 384.8 205.9C386.1 204.9 387.8 204.5 389.4 204.5C391 204.6 392.6 205.1 393.9 206C395.2 206.9 396.2 208.1 396.9 209.6C397.5 211.1 397.6 212.6 397.2 214.1C396.5 217 394.5 219.5 391.8 220.8C389.3 222 386.4 222.5 383.7 222.2C381.1 221.9 378.6 221.1 376.3 219.7C375.2 219 374.2 218.3 373.3 217.4C372.4 216.6 371.6 215.6 371 214.6C370.5 213.5 370.2 212.4 370 211.3C369.8 210.2 369.6 209.1 369.5 208.1C369 203.9 368.7 200 368.4 196.6C368.1 193.2 367.8 190.3 367.5 188C367.3 186.2 366.9 184.4 366.4 182.6C366.3 182.1 366.1 181.7 365.9 181.2C366.1 181.3 366 181.1 366 180.9Z" fill="#263238"/>
<path d="M423.7 321.8C423.7 321.8 423.7 321.7 423.7 321.4C423.7 321.1 423.7 320.7 423.7 320.2C423.7 319.1 423.7 317.6 423.7 315.5C423.7 311.4 423.7 305.4 423.6 297.8C423.6 282.6 423.5 260.9 423.5 234.9L423.7 235.1H343.1L343.4 234.8C343.4 266.8 343.4 296.6 343.4 321.7L343.2 321.5L401.6 321.6L418 321.7H422.3L417.9 321.8L401.6 321.9L343 322H342.8V321.8C342.8 296.7 342.8 266.8 342.8 234.9V234.6H343.1H423.7H423.9V234.8C423.9 260.8 423.8 282.6 423.8 297.8C423.8 305.4 423.8 311.4 423.7 315.5C423.7 317.5 423.7 319.1 423.7 320.1C423.7 320.6 423.7 321 423.7 321.3C423.7 321.6 423.7 321.8 423.7 321.8Z" fill="#263238"/>
<path d="M400.9 245.6C400.9 245.8 400.7 246 400.5 246C400.3 246 400.1 245.9 400 245.6C399.9 245.3 400.1 245.2 400.4 245.1H400.5C400.7 245.2 400.9 245.3 400.9 245.6Z" fill="#263238"/>
<path d="M403.2 245.6C403.2 245.8 403 246 402.8 246C402.6 246 402.4 245.9 402.3 245.6C402.2 245.3 402.4 245.2 402.7 245.1H402.8C403 245.2 403.2 245.3 403.2 245.6Z" fill="#263238"/>
<path d="M405.5 245.6C405.5 245.8 405.3 246 405.1 246C404.9 246 404.7 245.9 404.6 245.6C404.5 245.3 404.7 245.2 405 245.1H405.1C405.3 245.2 405.5 245.3 405.5 245.6Z" fill="#263238"/>
<path d="M407.8 245.6C407.8 245.8 407.6 246 407.4 246C407.2 246 407 245.8 407 245.6C407 245.4 407.2 245.2 407.4 245.2C407.6 245.2 407.8 245.3 407.8 245.6Z" fill="#263238"/>
<path d="M410.1 245.6C410.1 245.8 409.9 246 409.7 246C409.5 246 409.3 245.7 409.3 245.5C409.3 245.3 409.5 245.2 409.7 245.1C409.9 245.2 410.1 245.3 410.1 245.6Z" fill="#263238"/>
<path d="M412.3 245.6C412.3 245.8 412.1 246 411.9 246C411.7 246 411.5 245.7 411.5 245.5C411.5 245.3 411.7 245.2 411.9 245.1C412.1 245.2 412.3 245.3 412.3 245.6Z" fill="#263238"/>
<path d="M414.6 245.6C414.6 245.8 414.4 246 414.2 246C414 246 413.8 245.7 413.8 245.5C413.8 245.3 414 245.2 414.2 245.1C414.4 245.2 414.6 245.3 414.6 245.6Z" fill="#263238"/>
<path d="M413.1 247.5C413.321 247.5 413.5 247.321 413.5 247.1C413.5 246.879 413.321 246.7 413.1 246.7C412.879 246.7 412.7 246.879 412.7 247.1C412.7 247.321 412.879 247.5 413.1 247.5Z" fill="#263238"/>
<path d="M410.8 247.5C411.021 247.5 411.2 247.321 411.2 247.1C411.2 246.879 411.021 246.7 410.8 246.7C410.579 246.7 410.4 246.879 410.4 247.1C410.4 247.321 410.579 247.5 410.8 247.5Z" fill="#263238"/>
<path d="M408.9 247.1C408.9 247.3 408.7 247.5 408.5 247.5C408.3 247.5 408.1 247.3 408.1 247.1C408.1 246.9 408.3 246.7 408.5 246.7C408.7 246.7 408.9 246.9 408.9 247.1Z" fill="#263238"/>
<path d="M406.2 247.5C406.421 247.5 406.6 247.321 406.6 247.1C406.6 246.879 406.421 246.7 406.2 246.7C405.979 246.7 405.8 246.879 405.8 247.1C405.8 247.321 405.979 247.5 406.2 247.5Z" fill="#263238"/>
<path d="M403.8 247.5C404.021 247.5 404.2 247.321 404.2 247.1C404.2 246.879 404.021 246.7 403.8 246.7C403.579 246.7 403.4 246.879 403.4 247.1C403.4 247.321 403.579 247.5 403.8 247.5Z" fill="#263238"/>
<path d="M401.9 247.1C401.9 247.3 401.7 247.5 401.5 247.5C401.3 247.5 401.1 247.3 401.1 247.1C401.1 246.9 401.3 246.7 401.5 246.7C401.7 246.7 401.9 246.9 401.9 247.1Z" fill="#263238"/>
<path d="M400.9 248.8C400.9 249 400.7 249.2 400.5 249.2C400.3 249.2 400.1 249 400.1 248.8C400.1 248.6 400.3 248.4 400.5 248.4C400.7 248.4 400.9 248.6 400.9 248.8Z" fill="#263238"/>
<path d="M403.2 248.8C403.2 249 403 249.2 402.8 249.2C402.6 249.2 402.4 249 402.4 248.8C402.4 248.6 402.6 248.4 402.8 248.4C403 248.4 403.2 248.6 403.2 248.8Z" fill="#263238"/>
<path d="M405.5 248.8C405.5 249 405.3 249.2 405.1 249.2C404.9 249.2 404.7 249 404.7 248.8C404.7 248.6 404.9 248.4 405.1 248.4C405.3 248.4 405.5 248.6 405.5 248.8Z" fill="#263238"/>
<path d="M407.8 248.8C407.8 249 407.5 249.2 407.3 249.2C407.1 249.2 407 249 406.9 248.8C406.9 248.6 407 248.4 407.3 248.3C407.6 248.2 407.7 248.4 407.8 248.7C407.8 248.8 407.8 248.8 407.8 248.8Z" fill="#263238"/>
<path d="M410.1 248.8C410.1 249 409.9 249.2 409.7 249.2C409.5 249.2 409.3 249 409.3 248.8C409.3 248.6 409.5 248.4 409.7 248.4C409.9 248.4 410.1 248.6 410.1 248.8Z" fill="#263238"/>
<path d="M412.3 248.8C412.3 249 412.1 249.2 411.9 249.2C411.7 249.2 411.5 249 411.5 248.8C411.5 248.6 411.7 248.4 411.9 248.4C412.2 248.4 412.3 248.6 412.3 248.8Z" fill="#263238"/>
<path d="M414.6 248.8C414.6 249 414.4 249.2 414.2 249.2C414 249.2 413.8 249 413.8 248.8C413.8 248.6 414 248.4 414.2 248.4C414.4 248.4 414.6 248.6 414.6 248.8Z" fill="#263238"/>
<path d="M413.6 250.4C413.6 250.6 413.4 250.8 413.2 250.8C413 250.8 412.8 250.6 412.8 250.4C412.8 250.2 413 250 413.2 250C413.4 250 413.6 250.1 413.6 250.4Z" fill="#263238"/>
<path d="M411.2 250.4C411.2 250.6 411 250.8 410.8 250.8C410.6 250.8 410.4 250.6 410.4 250.4C410.4 250.2 410.6 250 410.8 250C411 250 411.2 250.1 411.2 250.4Z" fill="#263238"/>
<path d="M408.9 250.4C408.9 250.6 408.7 250.8 408.5 250.8C408.3 250.8 408.1 250.6 408.1 250.4C408.1 250.2 408.3 250 408.5 250C408.7 250 408.9 250.1 408.9 250.4Z" fill="#263238"/>
<path d="M406.6 250.4C406.6 250.6 406.4 250.8 406.2 250.8C406 250.8 405.8 250.6 405.8 250.4C405.8 250.2 406 250 406.2 250C406.4 250 406.6 250.1 406.6 250.4Z" fill="#263238"/>
<path d="M404.2 250.4C404.2 250.6 404.1 250.8 403.8 250.9C403.5 251 403.4 250.8 403.3 250.5V250.4C403.3 250.2 403.6 250 403.8 250C404.1 250 404.2 250.2 404.2 250.4Z" fill="#263238"/>
<path d="M401.9 250.4C401.9 250.6 401.7 250.8 401.5 250.8C401.3 250.8 401.1 250.6 401.1 250.4C401.1 250.2 401.3 250 401.5 250C401.7 250 401.9 250.1 401.9 250.4Z" fill="#263238"/>
<path d="M400.9 252.1C400.9 252.3 400.7 252.5 400.5 252.5C400.3 252.5 400.1 252.3 400.1 252.1C400.1 251.9 400.3 251.7 400.5 251.7C400.7 251.7 400.9 251.9 400.9 252.1Z" fill="#263238"/>
<path d="M403.2 252.1C403.2 252.3 403 252.5 402.8 252.5C402.6 252.5 402.4 252.3 402.4 252.1C402.4 251.9 402.6 251.7 402.8 251.7C403 251.7 403.2 251.9 403.2 252.1Z" fill="#263238"/>
<path d="M405.5 252.1C405.5 252.3 405.3 252.5 405.1 252.5C404.9 252.5 404.7 252.3 404.7 252.1C404.7 251.9 404.9 251.7 405.1 251.7C405.3 251.7 405.5 251.9 405.5 252.1Z" fill="#263238"/>
<path d="M407.8 252.1C407.8 252.3 407.7 252.5 407.4 252.6C407.1 252.7 407 252.5 406.9 252.2V252.1C406.9 251.9 407.2 251.7 407.4 251.7C407.6 251.8 407.8 251.9 407.8 252.1Z" fill="#263238"/>
<path d="M410.1 252.1C410.1 252.3 409.9 252.5 409.7 252.5C409.5 252.5 409.3 252.3 409.3 252.1C409.3 251.9 409.5 251.7 409.7 251.7C409.9 251.7 410.1 251.9 410.1 252.1Z" fill="#263238"/>
<path d="M412.3 252.1C412.3 252.3 412.1 252.5 411.9 252.5C411.7 252.5 411.5 252.3 411.5 252.1C411.5 251.9 411.7 251.7 411.9 251.7C412.1 251.7 412.3 251.9 412.3 252.1Z" fill="#263238"/>
<path d="M414.6 252.1C414.6 252.3 414.4 252.5 414.2 252.5C414 252.5 413.8 252.3 413.8 252.1C413.8 251.9 414 251.7 414.2 251.7C414.4 251.7 414.6 251.9 414.6 252.1Z" fill="#263238"/>
<path d="M413.1 254C413.321 254 413.5 253.821 413.5 253.6C413.5 253.379 413.321 253.2 413.1 253.2C412.879 253.2 412.7 253.379 412.7 253.6C412.7 253.821 412.879 254 413.1 254Z" fill="#263238"/>
<path d="M410.8 254C411.021 254 411.2 253.821 411.2 253.6C411.2 253.379 411.021 253.2 410.8 253.2C410.579 253.2 410.4 253.379 410.4 253.6C410.4 253.821 410.579 254 410.8 254Z" fill="#263238"/>
<path d="M408.9 253.6C408.9 253.8 408.7 254 408.5 254C408.3 254 408.1 253.9 408 253.6C407.9 253.3 408.1 253.2 408.4 253.1H408.5C408.7 253.2 408.9 253.4 408.9 253.6Z" fill="#263238"/>
<path d="M406.2 254C406.421 254 406.6 253.821 406.6 253.6C406.6 253.379 406.421 253.2 406.2 253.2C405.979 253.2 405.8 253.379 405.8 253.6C405.8 253.821 405.979 254 406.2 254Z" fill="#263238"/>
<path d="M403.8 254C404.021 254 404.2 253.821 404.2 253.6C404.2 253.379 404.021 253.2 403.8 253.2C403.579 253.2 403.4 253.379 403.4 253.6C403.4 253.821 403.579 254 403.8 254Z" fill="#263238"/>
<path d="M401.9 253.6C401.9 253.8 401.7 254 401.5 254C401.3 254 401.1 253.7 401.1 253.5C401.1 253.3 401.3 253.2 401.5 253.1C401.7 253.2 401.9 253.4 401.9 253.6Z" fill="#263238"/>
<path d="M369.4 152.1C370 152.1 370.5 152.2 371 152.4C372.5 152.9 373.9 153.8 374.9 155C376.5 156.9 377.7 159.2 378.4 161.6C379.4 164.8 380.1 168 380.6 171.3C381.7 179.8 381.9 188.5 381.2 197.1C381.1 199.6 380.3 202.1 379 204.2C378.3 205.3 377.3 206.2 376.2 206.9C375 207.6 373.7 208 372.3 207.8C370.9 207.7 369.6 207.1 368.6 206.1C368.1 205.6 367.7 205 367.5 204.3C367.3 203.6 367.3 202.9 367.5 202.2C367.9 200.8 368.9 199.6 370.3 199.1C371 198.8 371.8 198.8 372.5 199.1C373.2 199.4 373.8 199.8 374.3 200.4C375.2 201.6 375.5 203.1 375.3 204.5C375.1 205.9 374.6 207.2 373.8 208.4C369.7 215.6 360.6 218.3 353.3 214.3C351.2 213.1 349.4 211.6 347.9 209.7C346.5 207.9 345.4 206 344.6 203.9C343.3 200.1 342.5 196.1 342.4 192.1C342.2 188.4 342.4 185.1 342 182.2C341.8 180.9 341.5 179.6 341.1 178.3C340.7 177.2 340.1 176.3 339.4 175.4C338.4 174.2 337.2 173.2 335.7 172.6C335.2 172.4 334.6 172.3 334.1 172.2C334.7 172.2 335.2 172.3 335.7 172.5C337.2 173 338.5 174 339.5 175.2C340.2 176.1 340.8 177.1 341.3 178.2C341.8 179.5 342.1 180.8 342.3 182.2C342.7 185.1 342.5 188.4 342.7 192.1C342.8 196.1 343.6 200 344.9 203.8C345.7 205.9 346.8 207.8 348.1 209.5C349.5 211.3 351.3 212.9 353.4 214C360.5 217.8 369.3 215.2 373.2 208.2C373.9 207 374.4 205.8 374.6 204.4C374.8 203.1 374.5 201.7 373.7 200.6C373.3 200.1 372.8 199.7 372.2 199.4C371.6 199.2 370.9 199.2 370.3 199.4C369.1 199.9 368.2 200.9 367.8 202.2C367.5 203.5 367.9 204.8 368.8 205.7C369.7 206.6 370.9 207.2 372.2 207.3C373.5 207.4 374.7 207.1 375.8 206.4C376.9 205.7 377.8 204.9 378.5 203.8C379.8 201.7 380.5 199.3 380.7 196.9C381.4 188.4 381.2 179.8 380.2 171.3C379.7 168 379 164.8 378.1 161.7C377.5 159.3 376.3 157.1 374.7 155.2C373.7 154 372.4 153.1 370.9 152.6C370.5 152.4 370 152.3 369.4 152.1Z" fill="#E0E0E0"/>
<path d="M361.5 166.6H328.3V172.9H361.5V166.6Z" fill="#E0E0E0"/>
<path d="M121.7 232H78.3999V325.3H121.7V232Z" fill="#263238"/>
<path d="M118 315.5C118 315.5 118 315.4 118 315.1C118 314.8 118 314.4 118 313.9C118 312.9 118 311.4 118 309.4C118 305.5 118 299.9 117.9 292.7C117.9 278.5 117.8 258.5 117.8 235.2L118 235.4H81.8L82.1 235.1C82.1 266.3 82.1 294.6 82 315.3L81.8 315.1L108.3 315.2H115.5H117.4C117.9 315.4 118.1 315.4 118 315.5L117.5 315.4H115.6H108.4L81.8 315.5H81.6V315.3C81.6 294.5 81.6 266.2 81.5 235.1V234.8H118.3V235C118.3 258.4 118.2 278.4 118.2 292.7C118.2 299.8 118.2 305.4 118.1 309.3C118.1 311.2 118.1 312.7 118.1 313.7C118.1 314.2 118.1 314.6 118.1 314.8C118.1 315 118 315.5 118 315.5Z" fill="#455A64"/>
<path d="M115.8 242.1C115.8 242.1 115.8 241.7 115.8 241.1C115.8 240.5 115.8 239.5 115.7 238.4L115.8 238.5C110.2 238.6 98.2001 238.6 84.3001 238.6L84.6001 238.3V240.2C84.6001 240.8 84.6001 241.4 84.6001 242L84.4001 241.7C93.2001 241.7 101.1 241.8 106.7 241.8L113.4 241.9H115.2C115.4 241.9 115.6 241.9 115.9 241.9C115.7 241.9 115.5 241.9 115.3 241.9H113.5L106.9 242C101.2 242.1 93.3001 242.1 84.4001 242.1H84.1001V238.2L84.4001 237.9C98.3001 237.9 110.3 238 115.9 238V238.1C115.9 239.3 115.9 240.2 115.8 240.9C115.9 241.3 115.8 241.7 115.8 242.1Z" fill="#455A64"/>
<path d="M87.4 244.7C87.4 244.8 86.7 245 86 245C85.3 245 84.5 244.9 84.5 244.7C84.5 244.5 85.2 244.4 86 244.4C86.8 244.4 87.4 244.5 87.4 244.7Z" fill="#455A64"/>
<path d="M115 249.5C115 249.6 108.3 249.8 100 249.8C91.7 249.8 85 249.7 85 249.5C85 249.3 91.7 249.2 100 249.2C108.3 249.2 115 249.4 115 249.5Z" fill="#455A64"/>
<path d="M115.1 255.3C115.1 255.4 108.5 255.6 100.4 255.6C92.3002 255.6 85.7002 255.5 85.7002 255.3C85.7002 255.1 92.3002 255 100.4 255C108.5 255 115.1 255.2 115.1 255.3Z" fill="#455A64"/>
<path d="M100 271.3C101.326 271.3 102.4 270.225 102.4 268.9C102.4 267.575 101.326 266.5 100 266.5C98.6746 266.5 97.6001 267.575 97.6001 268.9C97.6001 270.225 98.6746 271.3 100 271.3Z" fill="#1A5F7A"/>
<path d="M93.1999 268.8C92.1999 269.1 91.0999 269.1 89.9999 269.1C88.8999 269.2 87.8999 269.1 86.8999 268.8C87.8999 268.5 88.9999 268.5 90.0999 268.5C91.1999 268.5 92.1999 268.6 93.1999 268.8Z" fill="#455A64"/>
<path d="M112.6 268.2C111.6 268.5 110.6 268.5 109.6 268.5C108.6 268.6 107.6 268.5 106.6 268.2C107.6 267.9 108.6 267.9 109.6 267.9C110.6 267.8 111.6 267.9 112.6 268.2Z" fill="#455A64"/>
<path d="M79.9 278.8C79.4 278.7 78.8 278.6 78.3 278.5C76.8 278.1 75.3 277.4 74 276.5C71.9 275.1 70.2 273.2 68.8 271.1C67.1 268.3 65.8 265.2 65 261.9C64 258 63.6 254 63.8 250C64.1 245.3 65.6 240.9 68.4 237.1C69.9 235.1 71.7 233.3 73.8 231.9C74.9 231.2 76.1 230.6 77.3 230.2C78.6 229.8 79.8 229.5 81.2 229.3C83.8 228.9 86.5 229 89.2 228.8C91.9 228.7 94.6 228.1 97.1 227C99.6 225.9 101.4 223.6 102 221C103 216.5 100.2 211.9 95.7 210.9C95 210.7 94.3 210.7 93.6 210.7C92.4 210.8 91.2 211.2 90.3 211.9C89.4 212.6 88.9 213.7 88.9 214.9C89.2 217.2 91 219 93.4 219.2C95.6 219.2 97.7 218.3 99.1 216.6C100.4 215 101.4 213.2 101.9 211.2C102.4 209.4 102.8 207.5 103.1 205.6C103.8 199.9 104 194.1 103.6 188.3C103.5 186.3 103.4 184.7 103.4 183.6C103.4 183.1 103.4 182.7 103.3 182.4C103.3 182.3 103.3 182.1 103.3 182C103.3 182.1 103.4 182.3 103.4 182.4C103.4 182.7 103.5 183.1 103.5 183.6C103.6 184.7 103.7 186.3 103.8 188.3C104.2 194.1 104.1 199.9 103.4 205.7C103.1 207.6 102.8 209.5 102.3 211.4C101.8 213.5 100.8 215.4 99.5 217C98 218.8 95.8 219.8 93.4 219.7C90.8 219.5 88.8 217.5 88.5 215C88.4 213.7 89 212.4 90.1 211.6C91.1 210.8 92.4 210.3 93.7 210.2C98.7 210.1 102.7 214.1 102.8 219.1C102.8 221.2 102.1 223.2 100.8 224.9C99.9 226 98.7 226.9 97.5 227.5C95 228.7 92.2 229.3 89.4 229.4C86.7 229.6 84 229.5 81.4 229.9C80.1 230.1 78.9 230.4 77.6 230.8C76.4 231.2 75.3 231.8 74.2 232.5C72.1 233.8 70.3 235.5 68.9 237.5C66.2 241.2 64.7 245.6 64.4 250.2C64.1 254.2 64.5 258.2 65.5 262C66.2 265.2 67.5 268.3 69.2 271.1C70.5 273.2 72.2 275 74.2 276.5C75.5 277.4 76.9 278.1 78.4 278.6C78.9 278.7 79.3 278.8 79.6 278.9C79.6 278.7 79.8 278.8 79.9 278.8Z" fill="#263238"/>
<path d="M167.8 87.4H65.2002V157.9H167.8V87.4Z" fill="#263238"/>
<path d="M122.5 148.2H108.5V174.8H122.5V148.2Z" fill="#263238"/>
<path d="M75.3999 173.8V183.3H128.3V325.8H133.2V183.3L354.3 184.4V325.8H359V184.1L393.2 184.4V172.9L75.3999 173.8Z" fill="#263238"/>
<path d="M109.2 181.5L130.1 196.5L128.3 198.2L107.3 182.4L109.2 181.5Z" fill="#263238"/>
<path d="M378.7 182.9L354.5 200.1L356.3 201.8L380.7 183.8L378.7 182.9Z" fill="#263238"/>
<path d="M207 170.2H152.3V174.2H207V170.2Z" fill="#263238"/>
</g>
</g>
<defs>
<clipPath id="clip0_34_3">
<rect width="454" height="354" fill="white"/>
</clipPath>
</defs>
</svg>
