<svg width="677" height="447" viewBox="0 0 677 447" fill="none" xmlns="http://www.w3.org/2000/svg">
<g clip-path="url(#clip0_34_349)">
<path opacity="0.1" d="M535.456 383.575C612.18 383.575 674.377 372.311 674.377 358.416C674.377 344.521 612.18 333.257 535.456 333.257C458.731 333.257 396.534 344.521 396.534 358.416C396.534 372.311 458.731 383.575 535.456 383.575Z" fill="#6C63FF"/>
<g opacity="0.5">
<path d="M416.463 63.4249C414.589 63.921 412.296 65.2133 411.165 68.7471C408.95 75.6739 414.096 80.3836 412.401 87.6043C411.93 89.5197 411.034 91.3222 409.772 92.8959C407.701 95.511 405.453 96.7481 403.271 98.5794C400.503 100.919 398.52 103.954 397.559 107.319C396.507 111.033 396.419 114.928 397.303 118.68C398.079 121.816 399.4 124.1 400.557 126.642C401.995 129.884 403.119 133.239 403.915 136.667C404.352 138.337 404.599 140.045 404.651 141.763C404.619 144.045 404.399 146.322 403.994 148.573L400.846 169.041C400.368 171.717 400.08 174.42 399.985 177.132C400.026 179.849 400.363 182.556 400.99 185.21C402.095 190.624 403.284 196.234 405.815 199.1C408.345 201.966 412.657 200.937 415.306 195.138C417.823 189.589 417.882 182.184 420.104 176.256C423.607 166.916 430.568 165.661 434.433 156.75C438.14 148.175 437.002 137.715 438.882 127.965C440.197 120.977 443.095 114.607 444.798 107.705C447.243 97.7648 447 87.4451 445.048 79.8017C443.563 73.5216 440.351 67.7091 435.727 62.935C434.091 61.2508 432.336 59.7503 430.279 59.5972C428.09 59.4379 426.177 62.0041 424.015 62.7757C421.517 63.6883 419.006 62.7513 416.463 63.4249Z" fill="#6C63FF"/>
<path d="M428.313 60.1177C428.313 60.1177 424.606 148.518 409.016 200.644" stroke="#535461" stroke-width="2" stroke-miterlimit="10"/>
<path d="M411.073 69.1635C411.073 69.1635 427.735 83.2988 424.573 110.197" stroke="#535461" stroke-width="2" stroke-miterlimit="10"/>
<path d="M397.093 109.389C397.093 109.389 424.442 114.515 422.411 129.759" stroke="#535461" stroke-width="2" stroke-miterlimit="10"/>
<path d="M445.094 79.618C445.094 79.618 434.025 88.6455 424.166 114.215" stroke="#535461" stroke-width="2" stroke-miterlimit="10"/>
<path d="M434.281 156.896C434.281 156.896 426.729 162.408 420.669 143.11" stroke="#535461" stroke-width="2" stroke-miterlimit="10"/>
<path d="M401.694 168.172C401.694 168.172 417.094 166.298 418.513 157.313" stroke="#535461" stroke-width="2" stroke-miterlimit="10"/>
</g>
<path d="M453.691 4.13403C449.879 4.66073 445.291 6.30821 443.404 11.3854C439.704 21.3438 450.95 28.883 448.36 39.2884C447.588 42.152 445.96 44.7531 443.667 46.7909C439.724 50.4105 435.215 51.9906 430.942 54.4465C426.67 56.9024 422.234 60.7669 420.229 66.6954C418.303 72.3973 419.138 78.6932 421.142 83.3968C423.147 88.1004 426.177 91.6097 428.885 95.4804C432.176 100.245 434.927 105.314 437.095 110.608C438.188 113.021 438.922 115.561 439.277 118.159C439.625 121.344 439.185 124.768 438.744 128.118L434.834 157.968C434.314 161.937 433.788 165.967 434.084 169.788C434.419 174.192 435.819 178.038 437.2 181.792C440.171 189.889 443.352 198.328 448.958 202.787C454.565 207.246 463.359 206.29 468.098 197.998C472.607 190.103 471.779 179.208 475.624 170.726C481.684 157.356 495.934 156.272 502.789 143.582C509.362 131.406 505.688 115.832 508.33 101.684C510.223 91.5485 515.35 82.4843 517.979 72.5075C521.771 58.1334 519.951 42.9141 514.942 31.4736C509.934 20.0331 502.014 11.8753 493.515 5.61002C489.913 2.94588 486.094 0.538968 481.816 0.0980069C477.267 -0.373577 473.632 3.19086 469.262 4.09115C464.174 5.07719 458.863 3.41746 453.691 4.13403Z" fill="#6C63FF"/>
<path d="M477.8 0.56958C477.8 0.56958 481.388 130.341 455.741 205.384" stroke="#535461" stroke-width="2" stroke-miterlimit="10"/>
<path d="M443.26 12.0101C443.26 12.0101 479.541 34.6706 476.432 73.9651" stroke="#535461" stroke-width="2" stroke-miterlimit="10"/>
<path d="M419.447 69.6841C419.447 69.6841 476.709 80.255 474.448 102.475" stroke="#535461" stroke-width="2" stroke-miterlimit="10"/>
<path d="M515.008 31.1429C515.008 31.1429 493.245 43.2142 476.104 79.7772" stroke="#535461" stroke-width="2" stroke-miterlimit="10"/>
<path d="M502.447 143.753C502.447 143.753 487.527 151.103 472.522 121.944" stroke="#535461" stroke-width="2" stroke-miterlimit="10"/>
<path d="M436.437 156.743C436.437 156.743 468.072 155.684 469.873 142.608" stroke="#535461" stroke-width="2" stroke-miterlimit="10"/>
<path d="M44.2018 354.355C44.2018 354.355 49.7097 361.092 41.6581 371.198C33.6065 381.303 26.9549 389.889 29.6563 396.21C29.6563 396.21 41.8027 377.389 51.6881 377.126C61.5736 376.863 55.0797 365.673 44.2018 354.355Z" fill="#6C63FF"/>
<path opacity="0.1" d="M44.2018 354.355C44.6933 355.003 45.0828 355.712 45.3586 356.462C55.0074 367.021 60.1407 376.875 50.8731 377.126C42.2365 377.359 31.8779 391.745 29.3934 395.383C29.4754 395.664 29.5741 395.94 29.6891 396.21C29.6891 396.21 41.8356 377.389 51.721 377.126C61.6064 376.863 55.0797 365.673 44.2018 354.355Z" fill="black"/>
<path d="M54.4421 362.911C54.4421 365.275 54.1595 367.198 53.7848 367.198C53.4102 367.198 53.1276 365.281 53.1276 362.911C53.1276 360.541 53.4825 361.686 53.8308 361.686C54.1792 361.686 54.4421 360.547 54.4421 362.911Z" fill="#FFD037"/>
<path d="M57.9585 365.728C55.7304 366.861 53.7914 367.566 53.6271 367.253C53.4628 366.941 55.1257 365.814 57.3539 364.687C59.582 363.56 58.7013 364.381 58.8722 364.687C59.0431 364.993 60.1801 364.595 57.9585 365.728Z" fill="#FFD037"/>
<path d="M15.1239 354.355C15.1239 354.355 9.61592 361.092 17.6675 371.198C25.7192 381.303 32.3576 389.883 29.6694 396.204C29.6694 396.204 17.5229 377.383 7.63752 377.12C-2.24789 376.857 4.23284 365.673 15.1239 354.355Z" fill="#6C63FF"/>
<path opacity="0.1" d="M15.1239 354.355C14.6439 355.004 14.2655 355.714 13.9999 356.462C4.35115 367.021 -0.78217 376.875 8.48541 377.126C17.122 377.359 27.4807 391.745 29.9652 395.383C29.8832 395.664 29.7844 395.94 29.6694 396.21C29.6694 396.21 17.5229 377.389 7.63752 377.126C-2.24789 376.863 4.23284 365.673 15.1239 354.355Z" fill="black"/>
<path d="M4.87042 362.911C4.87042 365.275 5.15305 367.198 5.5277 367.198C5.90234 367.198 6.18497 365.281 6.18497 362.911C6.18497 360.541 5.83004 361.686 5.48169 361.686C5.13333 361.686 4.87042 360.547 4.87042 362.911Z" fill="#FFD037"/>
<path d="M1.354 365.728C3.58216 366.861 5.52112 367.566 5.68544 367.253C5.84976 366.941 4.18685 365.814 1.95869 364.687C-0.269471 363.56 0.611279 364.381 0.440388 364.687C0.269496 364.993 -0.86759 364.595 1.354 365.728Z" fill="#FFD037"/>
<path d="M6.62531 395.328C6.62531 395.328 22.0253 394.887 26.6656 391.806C31.306 388.726 50.3275 385.069 51.5041 389.969C52.6806 394.869 74.6467 414.534 57.2618 414.663C39.8769 414.791 16.8657 412.14 12.2319 409.512C7.59807 406.885 6.62531 395.328 6.62531 395.328Z" fill="#A8A8A8"/>
<path opacity="0.2" d="M57.5707 412.96C40.1858 413.089 17.1746 410.437 12.5408 407.81C9.01121 405.807 7.60464 398.623 7.13798 395.31H6.62531C6.62531 395.31 7.59807 406.885 12.2319 409.512C16.8657 412.14 39.8769 414.798 57.2618 414.663C62.2834 414.626 64.012 412.96 63.92 410.498C63.2233 412.005 61.3106 412.936 57.5707 412.96Z" fill="black"/>
<path d="M645.681 351.569C646.885 350.654 647.763 349.419 648.198 348.029C648.527 346.62 647.883 344.936 646.437 344.421C644.82 343.846 643.091 344.887 641.783 345.946C640.475 347.006 638.97 348.206 637.255 347.98C638.136 347.235 638.796 346.29 639.169 345.237C639.542 344.184 639.616 343.059 639.384 341.972C639.31 341.521 639.105 341.097 638.793 340.747C637.892 339.853 636.269 340.238 635.191 340.943C631.773 343.184 630.82 347.508 630.8 351.403C630.458 350.001 630.748 348.537 630.734 347.116C630.721 345.695 630.301 344.054 628.999 343.307C628.192 342.903 627.286 342.702 626.37 342.725C624.832 342.67 623.123 342.817 622.072 343.864C620.757 345.162 621.105 347.349 622.242 348.764C623.379 350.178 625.102 351.091 626.692 352.083C627.967 352.789 629.054 353.754 629.873 354.906C629.97 355.066 630.049 355.234 630.11 355.409H639.739C641.897 354.384 643.895 353.093 645.681 351.569Z" fill="#6C63FF"/>
<path opacity="0.1" d="M96.442 294.17C117.356 318.95 109.233 355.151 95.9425 384.139C91.4927 393.846 86.458 404.117 88.3378 414.522C90.6317 427.249 102.798 436.57 115.628 441.47C138.961 450.46 166.895 448.317 188.329 435.89C206.858 425.148 220.128 407.681 238.972 397.429C270.521 380.28 310.655 386.754 344.899 398.568C369.126 406.928 395.614 417.805 419.69 409.065C436.628 402.941 448.341 387.954 454.723 372.092C457.805 364.43 460.04 356.168 465.896 350.044C469.393 346.436 473.955 343.87 478.634 341.714C521.357 321.988 575.254 332.528 616.715 310.676C644.721 295.903 662.652 268.031 670.611 238.97C678.571 209.91 677.624 179.435 675.607 149.51C674.174 128.24 671.604 105.537 657.019 89.1171C641.593 71.7542 615.111 65.2929 591.18 68.594C567.248 71.8951 545.545 83.7153 526.484 97.5688C502.631 114.883 480.514 136.447 451.226 143.466C431.284 148.243 410.304 145.627 389.731 144.727C355.343 143.214 320.947 146.565 286.749 150.239C254.011 153.767 221.022 157.65 189.847 167.571C167.776 174.596 150.082 187.341 129.24 196.246C115.654 202.052 100.839 203.657 87.9829 211.049C72.136 220.156 57.6167 236 61.6919 254.533C65.5172 272.177 85.334 281.021 96.442 294.17Z" fill="#6C63FF"/>
<path opacity="0.1" d="M363.046 294.158C518.292 294.158 644.143 282.894 644.143 268.999C644.143 255.104 518.292 243.839 363.046 243.839C207.8 243.839 81.9491 255.104 81.9491 268.999C81.9491 282.894 207.8 294.158 363.046 294.158Z" fill="#6C63FF"/>
<path opacity="0.1" d="M147.006 439.308C223.73 439.308 285.928 428.043 285.928 414.148C285.928 400.253 223.73 388.989 147.006 388.989C70.2818 388.989 8.08447 400.253 8.08447 414.148C8.08447 428.043 70.2818 439.308 147.006 439.308Z" fill="#6C63FF"/>
<path d="M289.017 261.153L286.815 264.136C286.815 264.136 289.214 267.118 289.444 267.492C289.674 267.866 296.444 267.308 296.444 267.308L297.042 265.073L296.043 262.464L289.017 261.153Z" fill="#E6E6F0"/>
<path d="M214.988 259.475L210.584 260.216L213.384 265.257L216.388 266.745L219.188 268.607L219.99 266.561L217.985 262.641L214.988 259.475Z" fill="#FDC2CC"/>
<path d="M287.019 211C287.019 211 310.431 216.218 314.828 222.024C314.828 222.024 318.831 225.196 314.828 230.972C310.825 236.747 305.225 249.805 305.225 249.805C305.225 249.805 301.223 262.482 299.625 263.413C298.028 264.344 288.82 265.091 288.018 261.576C288.018 261.576 293.217 253.932 293.217 250.386C293.217 246.84 301.821 230.065 301.821 230.065C301.821 230.065 282.214 228.014 276.01 229.318C269.805 230.623 278.816 208.948 287.019 211Z" fill="#565171"/>
<path opacity="0.1" d="M287.019 211C287.019 211 310.431 216.218 314.828 222.024C314.828 222.024 318.831 225.196 314.828 230.972C310.825 236.747 305.225 249.805 305.225 249.805C305.225 249.805 301.223 262.482 299.625 263.413C298.028 264.344 288.82 265.091 288.018 261.576C288.018 261.576 293.217 253.932 293.217 250.386C293.217 246.84 301.821 230.065 301.821 230.065C301.821 230.065 282.214 228.014 276.01 229.318C269.805 230.623 278.816 208.948 287.019 211Z" fill="black"/>
<path d="M282.214 216.034C282.168 217.118 282.043 218.337 281.866 219.648C280.584 229.141 276.41 243.258 276.41 243.258C276.41 243.258 272.211 251.648 271.008 257.056C269.805 262.464 261.602 263.793 261.602 263.793C261.602 263.793 239.189 266.243 234.588 265.287C229.987 264.332 222.757 268.086 219.182 267.523C215.606 266.959 213.378 259.132 213.378 259.132C219.584 259.166 225.725 257.959 231.387 255.592C240.589 251.679 253.8 253.54 253.8 253.54C254.786 253.274 255.702 252.822 256.493 252.214C257.284 251.605 257.934 250.852 258.401 250.001C259.801 247.202 259.801 230.237 259.4 229.116C256.771 221.767 256.988 217.051 257.744 214.301C257.997 213.1 258.566 211.976 259.4 211.031L282.214 216.034Z" fill="#565171"/>
<path opacity="0.1" d="M282.214 216.034C282.168 217.118 282.043 218.337 281.866 219.648C279.855 219.795 274.215 219.936 270.035 217.529C266.091 215.275 260.353 214.509 257.77 214.27C258.023 213.069 258.592 211.946 259.427 211L282.214 216.034Z" fill="black"/>
<path d="M284.981 213.701C284.048 216.151 282.615 219.023 282.615 219.023C282.615 219.023 275.214 219.954 270.009 216.971C264.803 213.989 256.403 213.615 256.403 213.615C257.764 212.837 258.684 210.473 259.256 208.403C259.575 207.233 259.825 206.047 260.005 204.851C260.005 204.851 284.613 209.512 285.639 210.259C286.02 210.553 285.612 212.035 284.981 213.701Z" fill="#E6E6F0"/>
<path d="M328.835 135.118L298.988 151.905L296.024 153.571V145.37L298.081 144.452L323.235 133.25C323.235 133.25 324.438 112.929 327.638 116.101C330.839 119.274 328.835 135.118 328.835 135.118Z" fill="#FDC2CC"/>
<path opacity="0.1" d="M298.988 151.905L296.024 153.571V145.37L298.081 144.452C298.217 146.951 298.52 149.44 298.988 151.905Z" fill="black"/>
<path d="M276.016 154.906L297.424 143.349C297.424 143.349 297.825 154.539 300.224 156.211C300.224 156.211 291.423 158.66 288.018 163.854L276.016 154.906Z" fill="#B45181"/>
<path opacity="0.1" d="M276.016 154.906L297.424 143.349C297.424 143.349 297.825 154.539 300.224 156.211C300.224 156.211 291.423 158.66 288.018 163.854L276.016 154.906Z" fill="black"/>
<path d="M328.644 164.76C328.644 164.76 318.463 168.894 311.719 170.413C310.202 170.84 308.615 171.01 307.033 170.915C302.432 170.168 308.236 164.791 308.236 164.791L310.655 164.442L323.642 162.555C323.642 162.555 325.042 143.913 327.441 145.407C329.84 146.901 328.644 164.76 328.644 164.76Z" fill="#FDC2CC"/>
<path d="M285.619 147.979C285.619 147.979 277.015 153.944 280.216 161.404C283.417 168.864 263.607 156.927 263.607 156.927C263.607 156.927 270.009 147.979 271.409 141.267C272.809 134.554 285.619 147.979 285.619 147.979Z" fill="#FDC2CC"/>
<path opacity="0.1" d="M284.981 213.701C281.26 212.395 277.371 211.551 273.413 211.19C267.629 210.577 262.332 209.542 259.262 208.403C259.581 207.233 259.832 206.047 260.011 204.851C260.011 204.851 284.62 209.512 285.645 210.259C286.02 210.553 285.612 212.035 284.981 213.701Z" fill="black"/>
<path opacity="0.1" d="M311.713 170.413C310.195 170.84 308.608 171.01 307.026 170.915C302.425 170.168 308.229 164.791 308.229 164.791L310.648 164.442C311.66 165.893 312.692 168.159 311.713 170.413Z" fill="black"/>
<path d="M271.612 151.335C271.612 151.335 263.811 151.152 261.011 154.134C258.211 157.117 258.809 165.158 258.809 165.158C258.809 165.158 258.224 181.26 262.608 190.269C262.752 190.559 262.769 190.891 262.654 191.193C262.608 191.304 262.608 191.236 262.608 191.236C262.608 191.236 259.808 202.983 257.008 205.035C254.208 207.086 263.009 209.512 273.44 210.626C283.871 211.741 288.044 214.54 288.044 214.54C288.044 214.54 289.845 212.703 290.016 208.575C290.187 204.447 287.236 174.455 287.236 174.455C287.236 174.455 298.239 177.064 304.844 173.898C304.844 173.898 307.848 175.392 310.648 171.289C313.448 167.186 308.676 162.715 308.676 162.715C308.676 162.715 304.272 166.818 292.067 161.41C279.861 156.002 275.405 151.152 271.612 151.335Z" fill="#B45181"/>
<path d="M211.787 259.849H209.388V263.021L211.787 268.055C211.787 268.055 214.988 268.613 215.192 268.613C215.396 268.613 217.992 268.055 217.992 268.055L218.794 266.751C218.794 266.751 209.986 263.572 211.787 259.849Z" fill="#E6E6F0"/>
<path d="M287.019 262.831L283.417 270.291L298.626 277.028L310.635 277.401C310.635 277.401 311.634 274.792 307.631 273.488L304.43 272.931C304.43 272.931 300.23 265.845 299.829 262.519C299.829 262.519 295.826 263.266 295.228 266.059C295.222 265.998 289.622 268.607 287.019 262.831Z" fill="#B45181"/>
<path d="M209.986 259.102L208.764 260.032L203.387 264.136L215.79 279.447C215.79 279.447 222.79 282.246 225.997 279.447C225.997 279.447 227.969 277.61 223.598 276.091C223.598 276.091 220.194 276.648 220.194 273.482C220.194 270.315 220.996 266.959 222.166 266.212C222.166 266.212 219.162 265.281 218.367 266.028C217.755 266.657 217.217 267.344 216.763 268.08C216.763 268.08 209.585 265.44 209.986 259.102Z" fill="#B45181"/>
<path opacity="0.1" d="M271.014 141.64C270.811 142.586 270.543 143.519 270.212 144.433C271.252 146.763 273.225 148.623 275.712 149.619C278.2 150.615 281.006 150.668 283.535 149.768C284.063 149.261 284.627 148.788 285.225 148.353C285.225 148.353 272.414 134.928 271.014 141.64Z" fill="black"/>
<path opacity="0.1" d="M269.91 166.542C269.91 166.542 276.115 174.186 285.119 174.376Z" fill="black"/>
<g opacity="0.1">
<path d="M306.994 174.027C306.867 173.994 306.744 173.951 306.625 173.898C306.433 173.992 306.235 174.08 306.034 174.161C306.359 174.155 306.681 174.11 306.994 174.027Z" fill="black"/>
<path d="M309.123 163.48C308.905 163.22 308.673 162.97 308.426 162.733C308.426 162.733 307.112 163.958 303.865 164.191C305.654 164.356 307.459 164.112 309.123 163.48Z" fill="black"/>
<path d="M289.017 174.455L289.056 174.853C291.696 175.309 294.378 175.514 297.062 175.466C294.351 175.374 291.657 175.035 289.017 174.455Z" fill="black"/>
<path d="M275.214 210.639C264.81 209.518 256.009 207.099 258.782 205.047C261.556 202.995 264.382 191.249 264.382 191.249C264.382 191.249 264.382 191.316 264.428 191.206C264.543 190.904 264.527 190.572 264.382 190.281C259.998 181.247 260.583 165.171 260.583 165.171C260.583 165.171 259.985 157.154 262.785 154.147C264.869 151.923 269.726 151.464 272.072 151.372C271.854 151.356 271.634 151.356 271.415 151.372C271.415 151.372 263.613 151.188 260.813 154.171C258.013 157.154 258.611 165.195 258.611 165.195C258.611 165.195 258.026 181.296 262.411 190.305C262.555 190.596 262.572 190.928 262.457 191.23C262.411 191.34 262.411 191.273 262.411 191.273C262.411 191.273 259.63 202.983 256.804 205.035C253.978 207.086 262.805 209.512 273.236 210.626C283.667 211.741 287.84 214.54 287.84 214.54C288.05 214.306 288.235 214.054 288.393 213.787C286.362 212.874 282.181 211.374 275.214 210.639Z" fill="black"/>
</g>
<path d="M280.216 150.031C285.962 150.031 290.621 145.69 290.621 140.336C290.621 134.982 285.962 130.641 280.216 130.641C274.47 130.641 269.811 134.982 269.811 140.336C269.811 145.69 274.47 150.031 280.216 150.031Z" fill="#FDC2CC"/>
<path opacity="0.1" d="M295.025 136C294.163 138.009 291.594 138.768 289.339 139.289C286.118 140.024 282.648 140.746 279.565 139.607C279.166 139.398 278.705 139.315 278.251 139.368C277.885 139.505 277.579 139.753 277.383 140.073C273.985 144.58 274.537 150.588 273.656 156.039C273.38 157.736 272.914 159.487 271.685 160.755C269.292 163.205 264.777 163.113 262.575 165.716C261.122 167.431 261.109 169.813 261.122 171.999C261.122 174.331 261.1 176.664 261.057 179C261.017 180.531 260.938 182.117 260.195 183.477C258.934 185.779 256.12 186.876 253.524 187.764C251.907 188.327 250.238 188.897 248.503 188.744C246.767 188.591 245.032 187.519 244.809 185.902C244.5 183.709 246.925 182.178 248.595 180.598C251.263 178.081 252.361 174.419 252.459 170.879C252.553 169.449 252.329 168.017 251.802 166.671C251.191 165.281 250.1 164.111 249.442 162.739C247.418 158.513 249.916 153.626 252.906 149.927C255.897 146.228 259.571 142.62 260.209 138.033C260.264 137.04 260.416 136.054 260.662 135.087C261.122 133.752 262.213 130.065 263.416 129.22C265.342 127.868 267.603 126.992 269.989 126.672C271.836 126.421 273.722 126.513 275.556 126.182C277.699 125.796 279.69 124.847 281.833 124.492C286.467 123.726 291.495 128.742 293.526 132.699C294.085 133.911 295.55 134.769 295.025 136Z" fill="black"/>
<path d="M295.025 135.626C294.163 137.635 291.594 138.394 289.339 138.915C286.118 139.65 282.648 140.373 279.565 139.234C279.166 139.025 278.705 138.941 278.251 138.995C277.885 139.131 277.579 139.38 277.383 139.699C273.985 144.207 274.537 150.215 273.656 155.665C273.38 157.362 272.914 159.114 271.685 160.381C269.292 162.831 264.777 162.739 262.575 165.342C261.122 167.057 261.109 169.439 261.122 171.626C261.122 173.957 261.1 176.291 261.057 178.626C261.017 180.157 260.938 181.743 260.195 183.103C258.934 185.406 256.12 186.502 253.524 187.39C251.907 187.954 250.238 188.523 248.503 188.37C246.767 188.217 245.032 187.145 244.809 185.528C244.5 183.336 246.925 181.805 248.595 180.225C251.263 177.707 252.361 174.045 252.459 170.505C252.553 169.075 252.329 167.643 251.802 166.298C251.191 164.907 250.1 163.737 249.442 162.366C247.418 158.14 249.916 153.252 252.906 149.553C255.897 145.854 259.571 142.247 260.209 137.66C260.264 136.667 260.416 135.681 260.662 134.714C261.122 133.379 262.213 129.692 263.416 128.846C265.342 127.495 267.603 126.618 269.989 126.299C271.836 126.048 273.722 126.139 275.556 125.809C277.699 125.423 279.69 124.474 281.833 124.118C286.467 123.353 291.495 128.369 293.526 132.325C294.085 133.538 295.55 134.395 295.025 135.626Z" fill="#F569BC"/>
<path d="M328.644 116.989H501.619V278.155H328.644V116.989Z" fill="#F7DF1E"/>
<path d="M374.134 251.673L387.372 244.207C389.928 248.427 392.249 251.997 397.822 251.997C403.166 251.997 406.531 250.05 406.531 242.48V190.979H422.786V242.688C422.786 258.373 412.927 265.514 398.519 265.514C385.518 265.514 377.973 259.236 374.141 251.666M431.613 250.043L444.844 242.902C448.327 248.206 452.856 252.089 460.868 252.089C467.605 252.089 471.897 248.953 471.897 244.623C471.897 239.43 467.487 237.592 460.066 234.561L456.004 232.938C444.279 228.289 436.496 222.447 436.496 210.112C436.496 198.751 445.784 190.097 460.296 190.097C470.629 190.097 478.043 193.453 483.4 202.211L470.747 209.787C467.96 205.133 464.943 203.295 460.296 203.295C455.538 203.295 452.514 206.107 452.514 209.787C452.514 214.332 455.531 216.169 462.498 218.974L466.56 220.597C480.363 226.109 488.158 231.737 488.158 244.397C488.158 258.03 476.663 265.495 461.21 265.495C446.093 265.495 436.365 258.759 431.633 250.025" fill="black"/>
<path d="M577.495 367.596C577.495 367.596 570.745 368.037 566.578 361.3C565.763 359.944 564.801 358.669 563.705 357.497C562.36 355.442 561.661 353.076 561.688 350.668C561.918 345.677 556.331 318.337 556.331 318.337C556.331 318.337 557.028 307.926 551.441 301.415C547.76 297.128 542.469 284.879 539.281 276.967C539.495 277.144 539.752 277.27 540.03 277.334L539.899 276.654H540.03L538.381 268.209C535.979 265.636 533.954 262.777 532.36 259.708L532.735 259.634L537.677 258.667C537.677 258.667 545.709 248.028 546.222 242.798H546.879H547.806C555.241 242.76 562.671 243.122 570.061 243.882C570.061 243.852 570.009 243.717 569.943 243.502C569.63 242.45 569.389 241.38 569.22 240.299H569.68L574.281 240.018C574.281 240.018 590.115 223.531 584.291 220.493C578.468 217.455 572.414 234.163 572.414 234.163L570.443 234.493L569.91 234.585C569.963 234.512 570.015 234.444 570.074 234.377C570.134 234.31 544.23 233.299 540.241 227.432C540.241 227.432 528.83 218.968 528.364 213.346C528.28 212.179 527.853 211.057 527.129 210.102C526.406 209.147 525.414 208.396 524.262 207.932C522.853 207.305 521.291 207.032 519.734 207.142L514.39 207.485L514.765 208.097H514.614C514.278 207.381 513.997 206.644 513.772 205.892H513.884C513.845 205.739 513.812 205.586 513.779 205.433C515.417 205.073 516.96 204.41 518.318 203.485C519.676 202.559 520.82 201.389 521.684 200.043C522.548 198.697 523.113 197.204 523.345 195.651C523.578 194.099 523.474 192.518 523.04 191.004C523.563 191.066 524.093 191.052 524.611 190.961C526.583 190.587 527.969 188.725 528.022 186.863C528.022 186.741 528.022 186.618 528.022 186.502C528.022 186.502 528.022 186.453 528.022 186.429C528.002 185.493 527.759 184.573 527.31 183.736C526.861 182.899 526.217 182.166 525.426 181.59C524.361 180.764 523.086 180.176 522.139 179.257C520.989 178.161 520.358 176.691 519.464 175.398C517.967 173.261 515.746 171.651 513.154 170.823C511.229 170.211 508.862 170.15 507.384 171.436C506.621 172.104 506.181 173.071 505.326 173.635C504.097 174.455 502.428 174.21 500.923 174.376C499.56 174.571 498.269 175.076 497.165 175.846C496.061 176.616 495.178 177.628 494.593 178.791C493.855 180.248 493.499 181.848 493.555 183.458C493.538 184.563 493.68 185.665 493.975 186.735C494.264 187.801 494.692 188.829 495.007 189.895C495.664 192.1 495.816 194.421 496.571 196.595C497.079 198.209 498.093 199.644 499.483 200.717L499.26 201.611C499.115 201.611 495.487 202.364 492.983 207.466C491.011 211.49 484.3 215.642 481.349 217.32C480.799 217.634 480.321 218.047 479.944 218.535C479.567 219.023 479.298 219.576 479.154 220.162C478.87 221.346 478.744 222.557 478.779 223.769C478.726 226.385 479.311 230.004 481.566 234.591C486.686 245.003 490.413 249.56 490.413 249.56C490.413 249.56 490.695 252.75 490.715 256.113C490.715 258.618 490.518 261.11 489.946 262.36C489.46 263.413 489.289 266.102 489.328 269.176C489.328 275.068 489.946 282.754 489.946 282.754C489.946 282.754 491.727 283.073 494.481 283.446L496.197 311.57C496.412 314.976 495.239 318.331 492.91 320.965C491.707 322.35 490.318 323.585 488.776 324.639C483.886 327.891 473.409 362.176 473.409 362.176C473.409 362.176 473.922 362.176 474.763 362.268L471.542 370.64C471.542 370.64 484.412 379.827 492.24 377.316C493.088 377.058 493.978 376.942 494.869 376.973C496.414 376.973 499.72 375.834 497.879 374.333C494.326 371.284 490.974 368.036 487.843 364.608C488.095 364.722 488.336 364.856 488.566 365.006V364.938L488.678 365.006C488.678 365.006 488.678 364.669 488.763 364.118L488.651 364.081C488.888 361.827 489.637 356.119 491.123 355.458C492.983 354.588 506.726 329.202 506.726 329.202L520.463 296.222C520.463 296.222 531.407 313.799 540.721 316.831V324.18C540.721 324.18 545.841 345.879 547.707 348.261C549.574 350.644 547.707 360.192 547.707 360.192C548.076 360.585 548.498 360.931 548.963 361.221L547.471 369.085C547.471 369.085 558.184 368.65 576.345 373.856C576.332 373.886 583.319 371.069 577.495 367.596ZM534.654 254.122L532.386 254.649L531.939 254.753C531.893 254.49 531.861 254.337 531.861 254.337C531.34 254.555 530.781 254.682 530.211 254.71C529.407 252.338 528.943 249.877 528.83 247.392C528.068 244.417 527.603 241.382 527.444 238.327C527.444 236.747 527.726 235.369 528.364 234.591L529.12 234.647L529.645 235.112L529.685 235.143L529.954 235.369L530.237 235.602L530.283 235.639L530.585 235.89L530.638 235.933L530.947 236.178L531.295 236.447L531.374 236.508L531.742 236.784L532.104 237.053L532.189 237.115L532.59 237.396L532.676 237.452L533.057 237.715L533.122 237.758L533.556 238.046L533.661 238.113L534.122 238.407H534.161L534.608 238.683L534.713 238.75L535.193 239.038L535.298 239.099L535.745 239.356L535.83 239.405L536.343 239.687L536.468 239.754L537 240.03H537.04L537.559 240.287L537.684 240.348L538.236 240.606L538.348 240.655L538.861 240.875L538.959 240.918L539.537 241.151L539.676 241.206L540.274 241.432C536.56 245.242 534.654 254.122 534.654 254.122Z" fill="url(#paint0_linear_34_349)"/>
<path d="M477.221 357.111L472.903 368.337C472.903 368.337 484.734 376.789 492.424 375.038C493.583 374.769 494.763 374.591 495.953 374.505C497.544 374.395 500.285 373.31 498.583 371.939C493.127 367.492 485.851 359.23 485.851 359.23L477.221 357.111Z" fill="#4F4D59"/>
<path d="M549.055 356.052L547.011 366.855C547.011 366.855 557.468 366.433 575.201 371.516C575.201 371.516 582.024 368.76 576.338 365.392C576.338 365.392 569.766 365.814 565.658 359.267C561.55 352.72 559.085 353.547 559.085 353.547L549.055 356.052Z" fill="#4F4D59"/>
<path d="M494.935 277.683L496.907 310.559C497.123 314.062 495.877 317.508 493.43 320.175C492.324 321.399 491.064 322.495 489.677 323.439C484.905 326.618 474.671 360.082 474.671 360.082C474.671 360.082 486.265 360.694 489.446 362.838C489.446 362.838 490.104 354.368 491.944 353.516C493.784 352.665 507.173 327.885 507.173 327.885L520.588 295.689C520.588 295.689 531.269 312.838 540.366 315.814V323.016C540.366 323.016 545.367 344.201 547.188 346.528C549.009 348.856 547.188 358.165 547.188 358.165C547.188 358.165 552.446 364.289 564.461 357.742C564.461 357.742 560.596 353.718 560.827 348.843C561.057 343.968 555.568 317.284 555.568 317.284C555.568 317.284 556.226 307.117 550.797 300.748C545.367 294.378 536.343 270.046 536.343 270.046L530.086 257.503L494.935 277.683Z" fill="#C48C96"/>
<g opacity="0.1">
<path d="M476.879 360.075C476.879 360.075 487.107 326.611 491.885 323.433C493.351 322.432 494.676 321.263 495.829 319.954C498.161 317.323 499.336 313.966 499.115 310.559L497.11 277.677L530.631 258.422L530.178 257.509L495.066 277.683L497.071 310.565C497.292 313.972 496.117 317.329 493.785 319.96C492.632 321.269 491.307 322.438 489.841 323.439C485.076 326.611 474.835 360.075 474.835 360.075C474.835 360.075 486.43 360.688 489.611 362.832C489.611 362.832 489.611 362.501 489.696 361.968C485.22 360.535 476.879 360.075 476.879 360.075Z" fill="black"/>
<path d="M549.397 358.171C549.397 358.171 551.217 348.849 549.397 346.534C547.576 344.219 542.574 323.023 542.574 323.023V315.808C533.484 312.844 522.797 295.683 522.797 295.683L522.008 297.606C525.091 302.163 533.313 313.468 540.537 315.82V323.023C540.537 323.023 545.538 344.207 547.359 346.534C549.18 348.862 547.359 358.171 547.359 358.171C547.359 358.171 549.896 361.147 555.496 360.743C551.309 360.419 549.397 358.171 549.397 358.171Z" fill="black"/>
</g>
<path d="M573.151 240.826L568.688 241.102L566.335 241.249V235.951L569.424 235.43L571.336 235.106C571.336 235.106 577.252 218.796 582.931 221.761C588.61 224.725 573.151 240.826 573.151 240.826Z" fill="#714B4F"/>
<path d="M501.547 197.165C501.547 197.165 498.589 207.754 497.682 214.313C496.775 220.873 518.82 215.587 518.82 215.587C518.82 215.587 510.407 206.058 515.185 200.974L501.547 197.165Z" fill="#714B4F"/>
<path d="M525.413 241.261L525.866 245.285L518.82 244.862L511.774 239.142L504.728 220.707L500.193 214.136L496.782 210.112L498.149 205.212C498.149 205.212 498.773 205.721 499.825 206.468C503.289 208.918 511.406 214.068 517.341 212.647C517.616 212.583 517.886 212.503 518.15 212.409L527.016 226.599L525.413 241.261Z" fill="#E6E6F0"/>
<path opacity="0.1" d="M499.956 203.969C499.956 203.969 496.322 204.582 493.817 209.689C491.898 213.597 485.404 217.651 482.506 219.286C481.953 219.601 481.473 220.016 481.095 220.506C480.717 220.996 480.448 221.552 480.304 222.14C479.719 224.553 479.495 229.055 482.677 235.528C487.678 245.695 491.313 250.141 491.313 250.141C491.313 250.141 492.22 260.308 490.86 263.272C489.499 266.236 490.86 282.546 490.86 282.546C490.86 282.546 514.725 286.784 522.685 282.546C530.645 278.308 529.507 261.998 529.507 261.998C529.507 261.998 537.007 276.826 539.735 277.248L538.144 268.986C538.144 268.986 529.277 260.088 528.824 248.653C528.824 248.653 526.096 238.272 528.37 235.522C528.37 235.522 566.788 238.487 569.062 235.945C569.062 235.945 543.829 234.885 539.965 229.165C539.965 229.165 528.824 220.903 528.37 215.397C528.304 214.364 527.956 213.363 527.359 212.489C526.762 211.616 525.936 210.899 524.959 210.406C523.413 209.586 521.639 209.217 519.865 209.346L514.732 209.677C514.732 209.677 523.599 224.29 523.145 226.213C522.691 228.136 523.599 243.582 523.599 243.582C523.599 243.582 513.338 223.035 508.823 220.707C504.308 218.38 499.043 208.801 499.043 208.801L499.95 203.963" fill="black"/>
<path opacity="0.1" d="M525.413 241.261L525.866 245.285L518.82 244.862L511.774 239.142L504.728 220.707L500.193 214.136L496.782 210.112L498.149 205.212C498.149 205.212 498.773 205.721 499.825 206.468L499.509 208.14C499.509 208.14 504.768 217.706 509.283 220.04C513.799 222.373 524.059 242.915 524.059 242.915C524.059 242.915 523.152 227.45 523.605 225.546C523.914 224.253 519.931 217.112 517.341 212.647C517.616 212.583 517.886 212.503 518.15 212.409L527.016 226.599L525.413 241.261Z" fill="black"/>
<path opacity="0.1" d="M568.688 241.102L566.335 241.249V235.951L569.424 235.43C568.346 236.759 568.385 239.111 568.688 241.102Z" fill="black"/>
<path d="M499.956 203.338C499.956 203.338 496.322 203.951 493.817 209.059C491.898 212.966 485.404 217.02 482.506 218.656C481.953 218.97 481.473 219.385 481.095 219.875C480.717 220.365 480.448 220.921 480.304 221.51C479.719 223.923 479.495 228.424 482.677 234.898C487.678 245.064 491.313 249.511 491.313 249.511C491.313 249.511 492.22 259.677 490.86 262.641C489.499 265.606 490.86 281.915 490.86 281.915C490.86 281.915 514.725 286.153 522.685 281.915C530.645 277.677 529.507 261.368 529.507 261.368C529.507 261.368 537 276.17 539.735 276.624L538.144 268.362C538.144 268.362 529.277 259.463 528.824 248.028C528.824 248.028 526.096 237.647 528.37 234.898C528.37 234.898 537.237 243.796 547.241 243.582C554.53 243.541 561.817 243.895 569.062 244.642C569.062 244.642 566.788 237.862 569.062 235.32C569.062 235.32 543.829 234.261 539.965 228.54C539.965 228.54 528.824 220.279 528.37 214.773C528.304 213.739 527.956 212.738 527.359 211.865C526.762 210.991 525.936 210.274 524.959 209.781C523.413 208.962 521.639 208.593 519.865 208.722L514.732 209.052C514.732 209.052 523.599 223.665 523.145 225.588C522.691 227.512 523.599 242.957 523.599 242.957C523.599 242.957 513.338 222.398 508.823 220.07C504.308 217.743 499.043 208.189 499.043 208.189L499.95 203.351" fill="#C48C96"/>
<path opacity="0.1" d="M494.935 225.576C494.935 225.576 500.39 242.725 503.571 244.85C506.753 246.975 526.076 257.772 531.762 255.231C531.762 255.231 533.129 261.588 531.105 263.07C531.105 263.07 509.908 262.298 509.737 262.225C509.737 262.225 495.868 260.528 493.594 254.177C491.32 247.826 488.592 237.029 488.592 237.029L494.935 225.576Z" fill="black"/>
<path d="M524.052 244.96C524.491 244.96 524.847 244.486 524.847 243.901C524.847 243.315 524.491 242.841 524.052 242.841C523.613 242.841 523.257 243.315 523.257 243.901C523.257 244.486 523.613 244.96 524.052 244.96Z" fill="#BA7855"/>
<path d="M526.32 252.371C526.759 252.371 527.115 251.896 527.115 251.311C527.115 250.726 526.759 250.252 526.32 250.252C525.88 250.252 525.524 250.726 525.524 251.311C525.524 251.896 525.88 252.371 526.32 252.371Z" fill="#BA7855"/>
<g opacity="0.1">
<path d="M492.457 281.682C492.457 281.682 491.09 265.373 492.457 262.409C493.824 259.444 492.91 249.278 492.91 249.278C492.91 249.278 489.276 244.832 484.274 234.665C481.086 228.191 481.316 223.69 481.901 221.277C482.045 220.688 482.314 220.132 482.692 219.642C483.07 219.152 483.55 218.737 484.103 218.423C487.001 216.769 493.489 212.733 495.415 208.826C496.828 205.96 498.596 204.508 499.871 203.785L499.956 203.32C499.956 203.32 496.322 203.932 493.817 209.04C491.898 212.948 485.404 217.002 482.506 218.637C481.953 218.952 481.473 219.366 481.095 219.857C480.717 220.347 480.448 220.903 480.304 221.491C479.719 223.904 479.495 228.406 482.677 234.879C487.678 245.046 491.313 249.492 491.313 249.492C491.313 249.492 492.22 259.659 490.86 262.623C489.499 265.587 490.86 281.897 490.86 281.897C490.86 281.897 507.909 284.922 517.992 283.299C507.811 284.432 492.457 281.682 492.457 281.682Z" fill="black"/>
<path d="M523.138 225.576C522.83 226.881 523.138 234.555 523.395 239.258C524.492 241.347 525.183 242.737 525.183 242.737C525.183 242.737 524.276 227.273 524.729 225.368C525.163 223.531 517.177 210.265 516.382 208.954L514.725 209.059C514.725 209.059 523.599 223.671 523.138 225.576Z" fill="black"/>
<path d="M548.831 243.368C538.828 243.582 529.961 234.683 529.961 234.683C529.695 235.028 529.501 235.417 529.389 235.829C532.018 238.107 539.248 243.747 547.241 243.576C554.531 243.535 561.817 243.889 569.062 244.636C569.062 244.636 569.016 244.495 568.944 244.256C562.263 243.612 555.548 243.316 548.831 243.368Z" fill="black"/>
<path d="M531.085 261.159C531.085 261.159 531.177 262.482 531.124 264.467C533.49 268.839 537.796 276.317 539.721 276.617L539.386 274.878C536.08 271.007 531.085 261.159 531.085 261.159Z" fill="black"/>
</g>
<path d="M537.461 259.022L532.63 259.971L528.817 260.718L530.861 255.421L532.288 255.09L534.503 254.576C534.503 254.576 537.684 239.748 544.053 240.808C550.422 241.867 537.461 259.022 537.461 259.022Z" fill="#714B4F"/>
<path opacity="0.1" d="M532.636 259.99L528.824 260.737L530.868 255.439L532.294 255.108C532.611 256.718 532.725 258.356 532.636 259.99Z" fill="black"/>
<path d="M494.935 225.154C494.935 225.154 500.39 242.302 503.571 244.427C506.753 246.552 526.076 257.35 531.762 254.808C531.762 254.808 533.129 261.165 531.105 262.648C531.105 262.648 509.908 261.876 509.737 261.802C509.737 261.802 495.868 260.106 493.594 253.755C491.32 247.404 488.592 236.606 488.592 236.606L494.935 225.154Z" fill="#C48C96"/>
<path opacity="0.1" d="M501.77 197.618C501.77 197.618 501.31 199.278 500.693 201.691C501.951 203.913 503.96 205.686 506.408 206.738C508.857 207.79 511.609 208.061 514.239 207.509C513.693 205.335 513.812 203.136 515.409 201.434L501.77 197.618Z" fill="black"/>
<path d="M511.321 207.362C518.102 207.362 523.599 202.24 523.599 195.922C523.599 189.603 518.102 184.481 511.321 184.481C504.54 184.481 499.043 189.603 499.043 195.922C499.043 202.24 504.54 207.362 511.321 207.362Z" fill="#714B4F"/>
<path opacity="0.1" d="M521.982 192.774C522.871 193.005 523.803 193.059 524.716 192.933C525.662 192.694 526.498 192.175 527.099 191.453C527.699 190.731 528.03 189.847 528.042 188.934C528.024 188.02 527.788 187.123 527.35 186.306C526.913 185.488 526.284 184.773 525.511 184.212C524.473 183.403 523.23 182.834 522.277 181.933C521.153 180.861 520.536 179.428 519.648 178.167C518.187 176.081 516.019 174.509 513.49 173.702C511.61 173.09 509.303 173.041 507.857 174.314C507.114 174.97 506.68 175.907 505.852 176.464C504.649 177.26 503.019 177.028 501.554 177.187C500.226 177.375 498.968 177.864 497.89 178.612C496.813 179.359 495.949 180.342 495.375 181.474C494.254 183.782 494.04 186.383 494.77 188.823C495.053 189.864 495.474 190.869 495.776 191.886C496.433 194.041 496.565 196.301 497.301 198.426C498.037 200.552 499.555 202.634 501.856 203.271C501.675 200.886 502.181 198.498 503.322 196.356C503.51 195.888 503.881 195.503 504.36 195.278C504.77 195.18 505.199 195.18 505.609 195.278C508.492 195.676 511.433 195.121 513.923 193.711C514.798 193.221 516.158 191.53 517.085 191.365C518.281 191.175 520.733 192.516 521.982 192.774Z" fill="black"/>
<path d="M521.982 192.351C522.871 192.582 523.803 192.637 524.716 192.51C525.662 192.272 526.498 191.752 527.099 191.03C527.699 190.309 528.03 189.424 528.042 188.511C528.024 187.598 527.788 186.7 527.35 185.883C526.913 185.066 526.284 184.35 525.511 183.789C524.473 182.981 523.23 182.411 522.277 181.511C521.153 180.439 520.536 179.006 519.648 177.744C518.187 175.658 516.019 174.087 513.49 173.279C511.61 172.667 509.303 172.618 507.857 173.892C507.114 174.547 506.68 175.484 505.852 176.042C504.649 176.838 503.019 176.605 501.554 176.764C500.226 176.952 498.968 177.442 497.89 178.189C496.813 178.937 495.949 179.92 495.375 181.051C494.254 183.359 494.04 185.961 494.77 188.401C495.053 189.442 495.474 190.446 495.776 191.463C496.433 193.619 496.565 195.879 497.301 198.004C498.037 200.129 499.555 202.211 501.856 202.848C501.68 200.464 502.19 198.079 503.335 195.94C503.523 195.472 503.894 195.087 504.373 194.862C504.783 194.764 505.212 194.764 505.622 194.862C508.505 195.259 511.446 194.705 513.937 193.294C514.811 192.804 516.171 191.114 517.098 190.948C518.281 190.753 520.733 192.094 521.982 192.351Z" fill="#503F43"/>
<path d="M644.465 154.594L634.448 259.138L589.425 270.775L544.526 259.138L534.522 154.594H644.465Z" fill="#E44D26"/>
<path d="M589.49 261.882L625.871 252.487L634.415 163.143H589.49V261.882Z" fill="#F16529"/>
<path d="M570.022 188.793H589.49V175.968H554.983L555.312 179.41L558.697 214.748H589.497V201.924H571.284L570.022 188.793ZM573.15 221.16H559.348L561.274 241.298L589.431 248.61H589.497V235.228H589.438L574.11 231.37L573.15 221.16Z" fill="#EBEBEB"/>
<path d="M544.756 126.176H551.75V132.613H558.145V126.176H565.138V145.676H558.145V139.148H551.75V145.676H544.756V126.176ZM574.334 132.644H568.175V126.176H587.486V132.644H581.327V145.676H574.34V132.644H574.334ZM590.555 126.176H597.851L602.34 133.029L606.823 126.176H614.118V145.676H607.151V136.012L602.34 142.945H602.222L597.404 136.012V145.676H590.555V126.176ZM617.595 126.176H624.589V139.227H634.448V145.67H617.615V126.176H617.595Z" fill="black"/>
<path d="M589.444 214.748H606.389L604.792 231.382L589.444 235.241V248.61L617.661 241.322L617.865 239.154L621.099 205.39L621.434 201.948H589.444V214.773V214.748ZM589.444 188.762V188.793H622.689L622.965 185.908L623.623 179.404L623.951 175.962H589.444V188.756V188.762Z" fill="white"/>
<path d="M241.042 231.774C239.761 228.277 237.914 223.812 236.442 222.796C236.353 222.73 236.256 222.674 236.152 222.63H235.968V218.313L232.511 218.827C231.956 217.266 231.536 215.667 231.256 214.044C231.589 214.354 232.013 214.566 232.475 214.652C232.937 214.738 233.416 214.695 233.852 214.528C233.793 214.442 233.747 214.35 233.694 214.258L233.852 214.197C233.308 213.302 233.02 212.292 233.017 211.263C233.046 210.325 233.207 209.394 233.497 208.495C234.115 206.505 235.16 204.643 235.745 202.646C236.119 201.357 236.296 200.025 236.271 198.69C236.288 196.428 235.734 194.193 234.654 192.167C234.386 191.584 233.965 191.072 233.431 190.679C232.945 190.428 232.445 190.201 231.933 189.999C231.076 189.461 230.337 188.775 229.757 187.978C227.302 185.193 224.015 183.149 220.312 182.105C219.348 181.771 218.303 181.695 217.295 181.884C214.975 182.497 214.127 185.149 212.247 186.551C210.584 187.776 208.304 187.917 206.227 188.333C204.094 188.671 202.132 189.63 200.62 191.071C199.637 192.118 199.101 193.465 199.115 194.856C199.058 195.505 199.181 196.157 199.473 196.749C199.764 197.34 200.213 197.853 200.778 198.237C201.42 198.63 202.148 198.887 202.91 198.987C203.671 199.088 204.447 199.03 205.182 198.818C204.608 200.666 204.45 202.603 204.717 204.51C204.985 206.417 205.673 208.252 206.737 209.899C207.802 211.547 209.22 212.972 210.904 214.084C212.587 215.197 214.499 215.973 216.52 216.365L216.927 217.039C218.17 219.199 219.113 221.498 219.734 223.88C216.552 225.564 213.075 227.138 210.979 227.285C210.896 228.049 210.744 228.805 210.525 229.545C210.035 231.404 209.093 233.132 207.771 234.598C204.919 237.586 192.082 260.186 192.082 260.186C192.082 260.186 191.675 261.086 191.017 262.635C183.045 263.548 170.037 264.865 166.402 264.185L152.139 251.556C152.139 251.556 147.539 254.833 147.933 258.814L145.363 256.535C145.363 256.535 131.81 266.169 153.211 272.459L185.772 275.981C182.67 284.702 179.778 294.85 180.672 300.374H180.941C181.564 300.373 182.186 300.328 182.801 300.24L182.742 301.219L179.607 353.541C179.607 353.541 178.891 363.174 188.52 367.498C188.52 367.498 200.291 399.731 195.651 403.388C195.651 403.388 196.203 403.657 197.13 404.037L187.448 411.999C187.448 411.999 180.317 413.658 176.393 413.328C175.703 413.24 175.003 413.392 174.426 413.755C173.849 414.117 173.436 414.665 173.264 415.294C173.264 415.361 173.264 415.428 173.225 415.502V415.588C173.225 415.655 173.225 415.729 173.225 415.802C173.225 415.875 173.225 415.857 173.225 415.882C173.225 415.906 173.225 416.004 173.225 416.065V416.145C173.225 416.218 173.225 416.286 173.271 416.359V416.439C173.293 416.517 173.319 416.592 173.35 416.666V416.739C173.383 416.813 173.422 416.886 173.461 416.96V417.009C173.507 417.082 173.553 417.156 173.606 417.229L173.652 417.29C173.709 417.368 173.773 417.445 173.843 417.523L173.895 417.584C173.968 417.664 174.046 417.737 174.132 417.817H174.171L174.434 418.025L174.493 418.068L174.815 418.282L174.894 418.331L175.269 418.534H175.328L175.729 418.717H175.788L176.255 418.895L176.353 418.932L176.873 419.091H176.958L177.517 419.226H177.563L178.22 419.342H178.345L179.002 419.434H179.127L179.883 419.501C181.349 419.605 183.327 419.642 185.614 419.636C185.614 419.636 185.614 419.691 185.614 419.716C185.614 419.74 185.614 419.838 185.614 419.899V419.979C185.614 420.052 185.614 420.12 185.66 420.193V420.273C185.682 420.35 185.709 420.426 185.739 420.499V420.573C185.772 420.646 185.812 420.72 185.851 420.793V420.842C185.897 420.916 185.943 420.989 185.996 421.063L186.042 421.124C186.099 421.202 186.162 421.279 186.232 421.357L186.285 421.418C186.357 421.498 186.436 421.571 186.522 421.651H186.554L186.817 421.859L186.876 421.902L187.198 422.116L187.277 422.165L187.645 422.367H187.705L188.106 422.551H188.165L188.631 422.729L188.73 422.766L189.249 422.925H189.335L189.893 423.06H189.939L190.597 423.176H190.722L191.379 423.268H191.504L192.26 423.335C201.534 424.003 231.131 422.006 231.131 422.006V421.926V421.828C231.427 420.542 232.846 413.064 227.798 407.534C227.95 407.387 228.094 407.234 228.232 407.075C228.232 407.075 224.289 400.76 226.451 398.77C228.613 396.779 216.007 362.525 216.007 362.525C216.007 362.525 209.23 352.555 213.154 341.255C217.078 329.955 212.799 317.664 212.799 317.664C212.799 317.664 222.166 315.079 222.336 304.343C222.336 304.018 222.336 303.681 222.336 303.345C222.532 303.371 222.73 303.384 222.928 303.381C223.059 303.39 223.191 303.39 223.322 303.381C223.322 303.381 221.541 297.398 223.677 293.08C225.813 288.762 230.454 292.749 234.733 275.135C237.828 262.39 240.55 247.735 241.825 240.6C242.348 237.643 242.08 234.611 241.042 231.774ZM159.659 269.133L156.405 266.255C157.483 266.671 158.679 267.076 160.014 267.48L172.272 268.821C166.803 269.28 161.696 269.538 159.659 269.152V269.133Z" fill="url(#paint1_linear_34_349)"/>
<path d="M190.702 267.455C190.702 267.455 165.476 270.72 160.217 269.74L146.204 257.332C146.204 257.332 132.888 266.8 153.914 273.004L193.153 277.248L190.702 267.455Z" fill="#FDC2CC"/>
<path opacity="0.05" d="M190.702 267.455C190.702 267.455 165.476 270.72 160.217 269.74L146.204 257.332C146.204 257.332 132.888 266.8 153.914 273.004L193.153 277.248L190.702 267.455Z" fill="black"/>
<path d="M141.321 275.693L86.8064 261.606L74.6599 134.646H208.146L195.986 261.588L141.321 275.693Z" fill="#264DE4"/>
<path d="M185.575 253.51L195.967 145.033H141.413V264.895L185.575 253.51Z" fill="#2965F1"/>
<path d="M102.541 192.1L104.04 207.668H141.439V192.1H102.541ZM99.5312 160.583L101.049 176.152H141.432V160.583H99.4983H99.5312ZM141.432 232.54H141.36L122.746 227.854L121.556 215.434H104.75L107.09 239.883L141.321 248.757H141.4L141.432 232.54Z" fill="#EBEBEB"/>
<path d="M106.078 100.129H126.315V108.017H114.537V115.905H126.315V123.794H106.078V100.129ZM130.397 100.129H150.634V106.988H138.83V108.36H150.608V124.137H130.364V116.934H142.142V115.562H130.364V100.129H130.397ZM154.716 100.129H174.954V106.988H163.116V108.36H174.894V124.137H154.65V116.934H166.429V115.562H154.65V100.129H154.716Z" fill="black"/>
<path d="M180.192 192.1L183.209 160.583H141.321V176.152H164.871L163.353 192.075H141.321V207.644H161.9L159.928 227.854L141.321 232.552V248.751L175.578 239.901L175.828 237.268L179.771 196.271L180.179 192.088L180.192 192.1Z" fill="white"/>
<path d="M199.818 400.001L187.554 410.119C187.554 410.119 180.547 411.754 176.695 411.423C172.844 411.092 171.089 416.972 180.199 417.627C189.308 418.282 218.386 416.323 218.386 416.323C218.386 416.323 221.186 405.874 212.78 400.001H199.818Z" fill="#47465A"/>
<path opacity="0.05" d="M199.818 400.001L187.554 410.119C187.554 410.119 180.547 411.754 176.695 411.423C172.844 411.092 171.089 416.972 180.199 417.627C189.308 418.282 218.386 416.323 218.386 416.323C218.386 416.323 221.186 405.874 212.78 400.001H199.818Z" fill="black"/>
<path opacity="0.3" d="M218.82 411.809C218.799 412.999 218.652 414.185 218.38 415.349C218.38 415.349 189.302 417.309 180.192 416.653C175.808 416.341 173.948 414.816 173.619 413.358C173.218 415.036 174.809 417.247 180.192 417.645C189.302 418.301 218.38 416.341 218.38 416.341C218.722 414.852 218.87 413.331 218.82 411.809Z" fill="white"/>
<path d="M214.173 214.926C214.173 214.926 221.883 225.043 219.076 231.903C216.27 238.762 233.793 224.719 233.793 224.719C233.793 224.719 228.186 215.538 230.993 205.739L214.173 214.926Z" fill="#FDC2CC"/>
<path d="M212.07 403.921L199.818 414.038C199.818 414.038 192.812 415.673 188.96 415.343C185.108 415.012 183.353 420.891 192.463 421.547C201.573 422.202 230.651 420.242 230.651 420.242C230.651 420.242 233.451 409.794 225.044 403.921H212.07Z" fill="#47465A"/>
<path d="M215.593 401.636C213.766 403.737 211.189 404.545 208.494 404.668C202.368 404.937 195.625 401.636 195.625 401.636C200.18 398.047 188.618 366.378 188.618 366.378C179.16 362.133 179.857 352.665 179.857 352.665L182.92 301.281L183.695 288.37L193.508 282.822L201.238 288.334L208.573 293.576C209.051 295.244 209.359 296.95 209.493 298.672C210.348 310.669 200.167 313.493 200.167 313.493C200.167 313.493 204.373 325.57 200.515 336.674C196.657 347.778 203.315 357.571 203.315 357.571C203.315 357.571 215.928 391.525 213.831 393.484C211.735 395.444 215.593 401.636 215.593 401.636Z" fill="#565171"/>
<path opacity="0.05" d="M215.593 401.636C213.766 403.737 211.189 404.545 208.494 404.668C202.368 404.937 195.625 401.636 195.625 401.636C200.18 398.047 188.618 366.378 188.618 366.378C179.16 362.133 179.857 352.665 179.857 352.665L182.92 301.281L183.695 288.37L193.508 282.822L201.238 288.334L208.573 293.576C209.051 295.244 209.359 296.95 209.493 298.672C210.348 310.669 200.167 313.493 200.167 313.493C200.167 313.493 204.373 325.57 200.515 336.674C196.657 347.778 203.315 357.571 203.315 357.571C203.315 357.571 215.928 391.525 213.831 393.484C211.735 395.444 215.593 401.636 215.593 401.636Z" fill="black"/>
<path d="M227.838 405.55C221.883 412.403 207.87 405.55 207.87 405.55C208.152 405.307 208.363 405.002 208.481 404.662C211.051 398.151 199.812 367.027 199.812 367.027C190.353 362.783 189.295 352.665 189.295 352.665L186.817 300.35L186.495 293.576L201.238 288.334L205.767 286.723L220.851 297.496C221.499 299.728 221.817 302.031 221.797 304.343C221.607 314.883 212.425 317.431 212.425 317.431C212.425 317.431 216.631 329.508 212.773 340.612C208.915 351.716 215.593 361.478 215.593 361.478C215.593 361.478 228.206 395.432 226.109 397.392C224.013 399.352 227.838 405.55 227.838 405.55Z" fill="#565171"/>
<path opacity="0.1" d="M221.798 304.343C218.767 303.939 212.635 300.54 209.487 298.696C208.284 297.992 207.515 297.52 207.515 297.52C207.515 297.52 204.36 289.356 195.953 295.56C193.219 297.63 190.13 299.257 186.817 300.374C185.552 300.792 184.247 301.097 182.92 301.287L183.695 288.376L193.508 282.828L201.238 288.34L205.767 286.729L220.851 297.496C221.499 299.728 221.817 302.031 221.798 304.343Z" fill="black"/>
<path d="M240.76 241.696C239.511 248.702 236.816 263.131 233.793 275.619C229.586 292.921 225.031 289.001 222.935 293.245C220.838 297.49 222.586 303.363 222.586 303.363C219.083 303.688 207.522 296.51 207.522 296.51C207.522 296.51 204.367 288.346 195.96 294.55C187.554 300.754 180.895 300.423 180.895 300.423C179.14 289.65 192.108 260.92 192.108 260.92C192.108 260.92 204.722 238.719 207.522 235.81C208.821 234.372 209.747 232.675 210.229 230.849C210.445 230.123 210.594 229.382 210.676 228.632C215.231 228.308 226.451 221.124 226.451 221.124L235.213 219.819V224.063C235.316 224.107 235.413 224.162 235.502 224.229C236.941 225.252 238.788 229.612 240.017 233.048C241.024 235.83 241.279 238.8 240.76 241.696Z" fill="#E1A0A7"/>
<path d="M199.818 272.355L195.29 271.865L160.579 268.111C139.546 261.907 152.869 252.438 152.869 252.438L166.882 264.846C170.924 265.6 186.784 263.842 193.89 263.009C196.019 262.752 197.367 262.58 197.367 262.58L199.818 272.355Z" fill="#FDC2CC"/>
<path opacity="0.1" d="M233.793 228.283C233.793 228.283 224.683 221.43 210.992 243.625C197.301 265.82 194.172 262.231 194.172 262.231C194.172 262.231 196.972 272.03 195.572 273.984C195.572 273.984 205.03 273.329 208.534 273.984C212.037 274.639 233.76 249.174 233.76 249.174C233.76 249.174 245.006 234.812 233.793 228.283Z" fill="black"/>
<path opacity="0.1" d="M233.444 226.979C233.444 226.979 224.335 220.125 210.67 242.32C197.005 264.516 193.85 260.927 193.85 260.927C193.85 260.927 204.708 272.024 208.212 272.679C211.715 273.335 233.438 247.869 233.438 247.869C233.438 247.869 244.658 233.507 233.444 226.979Z" fill="black"/>
<path opacity="0.1" d="M195.283 271.883C195.428 269.464 194.448 265.214 193.883 263.009C196.013 262.752 197.36 262.58 197.36 262.58L199.812 272.379L195.283 271.883Z" fill="black"/>
<path d="M233.793 227.628C233.793 227.628 224.683 220.775 210.992 242.976C197.301 265.177 194.172 261.582 194.172 261.582C194.172 261.582 196.972 271.381 195.572 273.335C195.572 273.335 205.03 272.679 208.534 273.335C212.037 273.99 233.76 248.525 233.76 248.525C233.76 248.525 245.006 234.157 233.793 227.628Z" fill="#E1A0A7"/>
<path opacity="0.1" d="M231.367 206.407L214.521 215.538C215.234 216.502 215.893 217.499 216.493 218.527C217.462 218.71 218.449 218.803 219.438 218.803C223.927 218.803 226.011 214.411 228.725 211.453C228.528 209.101 230.592 209.04 231.367 206.407Z" fill="black"/>
<path d="M219.076 218.166C227.204 218.166 233.793 212.026 233.793 204.453C233.793 196.88 227.204 190.74 219.076 190.74C210.949 190.74 204.36 196.88 204.36 204.453C204.36 212.026 210.949 218.166 219.076 218.166Z" fill="#FDC2CC"/>
<path opacity="0.1" d="M200.476 193.362C201.96 191.943 203.888 191 205.983 190.667C208.028 190.256 210.269 190.134 211.899 188.915C213.746 187.537 214.574 184.916 216.855 184.328C217.846 184.143 218.872 184.22 219.819 184.548C223.457 185.573 226.687 187.581 229.1 190.318C229.671 191.103 230.398 191.779 231.243 192.308C231.746 192.506 232.237 192.729 232.715 192.976C233.238 193.363 233.649 193.866 233.911 194.439C235.553 197.53 235.932 201.072 234.976 204.404C234.404 206.37 233.379 208.195 232.767 210.155C232.156 212.115 232.005 214.332 233.116 216.083C232.038 216.598 230.677 215.949 230 215.011C229.323 214.074 229.12 212.923 228.765 211.839C228.067 209.711 226.752 207.804 224.966 206.327C223.861 205.421 221.89 204.808 221.121 205.978C220.825 206.431 220.844 207.013 220.588 207.485C220.089 208.409 218.616 208.593 217.676 208.097C216.751 207.502 216.101 206.603 215.856 205.58C214.416 201.029 211.952 198.169 206.733 200.111C204.761 200.833 202.493 201.336 200.62 200.111C198.221 198.469 198.701 195.217 200.476 193.362Z" fill="black"/>
<path d="M200.476 193.031C201.96 191.613 203.888 190.669 205.983 190.336C208.028 189.926 210.269 189.803 211.899 188.584C213.746 187.206 214.574 184.585 216.855 183.997C217.846 183.813 218.872 183.889 219.819 184.218C223.457 185.242 226.687 187.25 229.1 189.987C229.671 190.772 230.398 191.448 231.243 191.977C231.746 192.176 232.237 192.398 232.715 192.645C233.238 193.033 233.649 193.536 233.911 194.109C235.553 197.199 235.932 200.741 234.976 204.073C234.404 206.039 233.379 207.864 232.767 209.824C232.156 211.784 232.005 214.001 233.116 215.753C232.038 216.267 230.677 215.618 230 214.681C229.323 213.744 229.12 212.592 228.765 211.508C228.067 209.38 226.752 207.473 224.966 205.996C223.861 205.09 221.89 204.477 221.121 205.647C220.825 206.1 220.844 206.682 220.588 207.154C220.089 208.079 218.616 208.262 217.676 207.766C216.751 207.171 216.101 206.272 215.856 205.249C214.416 200.699 211.952 197.838 206.733 199.78C204.761 200.503 202.493 201.005 200.62 199.78C198.221 198.145 198.701 194.893 200.476 193.031Z" fill="#8F5A6A"/>
<path opacity="0.05" d="M235.482 224.204H228.364C228.364 224.204 214.351 230.733 214.002 230.408C213.766 230.188 211.597 230.568 210.223 230.831C210.438 230.105 210.587 229.363 210.67 228.614C215.225 228.289 226.444 221.105 226.444 221.105L235.206 219.801V224.045C235.305 224.087 235.397 224.141 235.482 224.204Z" fill="black"/>
<path opacity="0.3" d="M231.078 415.722C231.057 416.913 230.91 418.099 230.638 419.262C230.638 419.262 201.56 421.222 192.45 420.567C188.066 420.254 186.206 418.729 185.877 417.272C185.476 418.95 187.067 421.161 192.45 421.559C201.56 422.214 230.638 420.254 230.638 420.254C230.98 418.766 231.128 417.244 231.078 415.722Z" fill="white"/>
<g opacity="0.05">
<path d="M192.628 294.225C187.902 297.716 183.722 299.125 180.974 299.737C180.974 299.982 181.027 300.221 181.066 300.454C181.066 300.454 187.724 300.778 196.131 294.581C197.433 293.54 198.973 292.791 200.633 292.388C198.799 291.549 196.183 291.604 192.628 294.225Z" fill="black"/>
<path d="M240.175 233.017C238.92 229.582 237.099 225.227 235.659 224.198C235.571 224.132 235.474 224.076 235.37 224.033C235.37 224.033 232.472 224.125 232.57 224.198C234.01 225.221 235.416 229.257 236.672 232.687C237.689 235.475 237.951 238.454 237.434 241.359C236.185 248.365 233.49 262.795 230.467 275.282C226.26 292.584 221.705 288.664 219.609 292.909C217.887 296.387 218.748 300.956 219.122 302.493C220.255 303.022 221.497 303.316 222.764 303.357C222.764 303.357 221.009 297.484 223.112 293.239C225.215 288.995 229.77 292.915 233.97 275.613C237.013 263.095 239.689 248.665 240.937 241.69C241.454 238.785 241.192 235.805 240.175 233.017Z" fill="black"/>
</g>
<path d="M280.893 293.999C282.098 293.084 282.976 291.849 283.41 290.459C283.739 289.05 283.095 287.366 281.649 286.851C280.032 286.276 278.303 287.317 276.995 288.376C275.688 289.436 274.182 290.636 272.467 290.41C273.349 289.665 274.008 288.72 274.381 287.667C274.755 286.614 274.829 285.489 274.596 284.402C274.522 283.951 274.318 283.527 274.005 283.177C273.104 282.283 271.481 282.668 270.403 283.373C266.985 285.614 266.032 289.938 266.012 293.833C265.671 292.431 265.96 290.967 265.947 289.546C265.934 288.125 265.513 286.484 264.211 285.737C263.404 285.333 262.498 285.132 261.582 285.155C260.044 285.1 258.335 285.247 257.284 286.294C255.969 287.593 256.318 289.779 257.455 291.194C258.592 292.608 260.314 293.521 261.904 294.513C263.179 295.219 264.267 296.184 265.086 297.337C265.182 297.496 265.261 297.664 265.322 297.839H274.951C277.109 296.814 279.108 295.523 280.893 293.999Z" fill="#6C63FF"/>
<path d="M298.58 408.998C300.112 407.669 301.551 406.101 301.998 404.196C302.445 402.291 301.571 400.001 299.612 399.297C297.424 398.513 295.077 399.909 293.302 401.36C291.528 402.812 289.49 404.423 287.17 404.116C288.365 403.107 289.259 401.825 289.765 400.398C290.27 398.971 290.371 397.445 290.056 395.971C289.954 395.362 289.677 394.791 289.254 394.317C288.038 393.092 285.829 393.625 284.377 394.581C279.776 397.643 278.461 403.48 278.428 408.759C277.962 406.854 278.356 404.87 278.343 402.916C278.33 400.962 277.758 398.8 275.99 397.747C274.889 397.196 273.651 396.925 272.401 396.963C270.318 396.89 267.997 397.086 266.578 398.506C264.81 400.27 265.263 403.228 266.808 405.17C268.352 407.111 270.686 408.33 272.835 409.671C274.56 410.63 276.032 411.938 277.14 413.499C277.271 413.717 277.379 413.947 277.462 414.185H290.522C293.447 412.802 296.158 411.057 298.58 408.998Z" fill="#6C63FF"/>
</g>
<defs>
<linearGradient id="paint0_linear_34_349" x1="528.541" y1="377.745" x2="528.541" y2="170.401" gradientUnits="userSpaceOnUse">
<stop stop-color="#808080" stop-opacity="0.25"/>
<stop offset="0.54" stop-color="#808080" stop-opacity="0.12"/>
<stop offset="1" stop-color="#808080" stop-opacity="0.1"/>
</linearGradient>
<linearGradient id="paint1_linear_34_349" x1="191.622" y1="423.807" x2="191.622" y2="181.762" gradientUnits="userSpaceOnUse">
<stop stop-color="#808080" stop-opacity="0.25"/>
<stop offset="0.54" stop-color="#808080" stop-opacity="0.12"/>
<stop offset="1" stop-color="#808080" stop-opacity="0.1"/>
</linearGradient>
<clipPath id="clip0_34_349">
<rect width="677" height="447" fill="white"/>
</clipPath>
</defs>
</svg>
